<?xml version="1.0" encoding="UTF-8"?>
<svg width="236px" height="78px" viewBox="0 0 236 78" version="1.1" xmlns="http://www.w3.org/2000/svg" xmlns:xlink="http://www.w3.org/1999/xlink">
    <title>Decision</title>
    <g id="页面-1" stroke="none" stroke-width="1" fill="none" fill-rule="evenodd">
        <g id="了解参与者管理指引" transform="translate(-12.000000, -503.000000)" fill-rule="nonzero">
            <g id="Decision" transform="translate(12.000000, 503.000000)">
                <path d="M235.373768,78 L0.626231994,78 C0.26838514,78 0,77.7857143 0,77.5 C0,77.2142857 0.26838514,77 0.626231994,77 C0.626231994,77 0.626231994,77 0.626231994,77 L235.373768,77 C235.731615,77 236,77.2142857 236,77.5 C236,77.7857143 235.731615,78 235.373768,78 Z" id="路径" fill="#D1D3D4"></path>
                <path d="M9.85415993,67.6797788 C9.66945456,67.7242995 13.3866501,68.3698494 14.2409124,68.7260148 C14.5179704,68.8373165 14.4948823,70.4178006 14.4948823,70.4178006 L4.68240966,70.8407471 L4.68240966,66.6558032 L9.85415993,67.6797788 Z" id="路径" fill="#433D54"></path>
                <path d="M4.65932149,70.9965694 C4.61314514,70.9965694 4.5669688,70.9743091 4.54388063,70.9520488 C4.52079246,70.9297884 4.49770429,70.8852677 4.49770429,70.8407471 L4.49770429,66.6558032 C4.49770429,66.6112825 4.52079246,66.5667619 4.54388063,66.5445015 C4.59005697,66.5222412 4.63623331,66.4999808 4.68240966,66.5222412 L9.8772481,67.5462168 C9.90033627,67.5462168 9.92342444,67.5684771 9.94651261,67.5684771 C10.0850416,67.6129978 10.5929814,67.7020392 11.077833,67.8133409 C12.2091534,68.0359443 13.779149,68.3698494 14.3101769,68.5924528 C14.6334113,68.7260148 14.6795876,69.6609491 14.6564995,70.4178006 C14.6564995,70.506842 14.5872349,70.573623 14.4948823,70.573623 L4.65932149,70.9965694 Z M4.82093868,66.8338859 L4.82093868,70.6626643 L14.3332651,70.2397179 C14.3332651,69.5496474 14.2640006,68.9263579 14.1716479,68.8373165 C13.6867963,68.6369734 12.0706243,68.3030683 11.0316566,68.0804649 C10.6160696,68.0136839 10.2004825,67.9246426 9.78489541,67.7910805 L4.82093868,66.8338859 Z" id="形状" fill="#231F20"></path>
                <path d="M6.99122674,69.3047836 L6.99122674,72.6438346 C6.99122674,72.6438346 15.141351,73.066781 15.3260564,72.6438346 C15.5107618,72.2208881 15.3260564,71.2414332 15.3260564,71.2414332 C15.3260564,71.2414332 10.1543061,69.8835525 10.1543061,69.7277301 C10.1543061,69.5719077 6.99122674,69.3047836 6.99122674,69.3047836 Z" id="路径" fill="#433D54"></path>
                <path d="M12.7632695,73 C11.3779792,73 9.46166102,72.933219 6.99122674,72.7996569 C6.89887406,72.7996569 6.82960955,72.7328759 6.82960955,72.6438346 L6.82960955,69.3047836 C6.82960955,69.2157423 6.89887406,69.1489612 6.99122674,69.1489612 C6.99122674,69.1489612 6.99122674,69.1489612 7.01431491,69.1489612 C9.7156309,69.3715646 10.2004825,69.5051267 10.2928352,69.6386887 C10.6622459,69.8390318 13.5713554,70.6181437 15.3722328,71.0856108 C15.4414973,71.1078711 15.4876736,71.1523918 15.4876736,71.1969125 C15.5107618,71.3082142 15.672379,72.2208881 15.4876736,72.6660949 C15.3722328,72.8886983 14.4717941,73 12.7632695,73 Z M7.15284394,72.4880122 C10.7545986,72.6660949 14.725764,72.7551363 15.1875274,72.5547932 C15.2798801,72.2654088 15.2337037,71.6643796 15.1875274,71.3749952 C11.1009212,70.3064989 10.2466588,69.9948542 10.0619535,69.8390318 C9.8772481,69.7499904 8.49195785,69.594168 7.17593211,69.4828663 L7.15284394,72.4880122 Z" id="形状" fill="#231F20"></path>
                <path d="M2.97388501,41.5906608 C2.97388501,41.8355246 3.85123551,68.41437 3.85123551,68.41437 C3.85123551,68.41437 9.36930834,69.0821802 9.36930834,68.41437 C9.36930834,67.7465599 10.5929814,40.8338093 10.5929814,40.8338093 L2.97388501,41.5906608 Z" id="路径" fill="#231F20"></path>
                <path d="M2.16579903,39.3868872 C2.16579903,39.6317509 2.16579903,42.0803883 2.78917965,43.0153226 C3.41256026,43.9502568 6.02152357,69.9280731 6.02152357,69.9280731 L11.1701857,69.9280731 C11.1701857,69.9280731 14.1716479,40.6557266 14.0792952,38.9639408 L2.16579903,39.3868872 Z" id="路径" fill="#231F20"></path>
                <polygon id="路径" fill="#79888F" points="21.4444217 46.3988942 9.85415993 50.0050692 12.832534 50.8509621 24.8383828 46.9331423"></polygon>
                <path d="M12.832534,51.0067845 C12.8094458,51.0067845 12.8094458,51.0067845 12.7863576,51.0067845 L9.80798358,50.1608916 C9.73871907,50.1386312 9.69254273,50.0718502 9.69254273,50.0050692 C9.69254273,49.9382882 9.73871907,49.8715072 9.80798358,49.8492468 L21.3982453,46.2430718 C21.4213335,46.2430718 21.4444217,46.2430718 21.4675099,46.2430718 L24.8383828,46.77732 C24.9307355,46.7995803 24.9769118,46.8886216 24.9769118,46.9554027 C24.9769118,46.9999233 24.9307355,47.044444 24.8845591,47.0667044 L12.8787103,50.9845241 C12.8556221,51.0067845 12.832534,51.0067845 12.832534,51.0067845 Z M10.408276,50.0050692 L12.832534,50.6951397 L24.1688258,46.977663 L21.4675099,46.5547166 L10.408276,50.0050692 Z" id="形状" fill="#231F20"></path>
                <polygon id="路径" fill="#263137" points="9.85415993 50.0050692 10.2466588 60.6455115 13.248121 61.4246234 12.832534 50.8509621"></polygon>
                <path d="M13.248121,61.5804458 C13.2250329,61.5804458 13.2250329,61.5804458 13.2019447,61.5804458 L10.2235707,60.8013339 C10.1543061,60.7790736 10.1081298,60.7345529 10.1081298,60.6677719 L9.69254273,50.0273295 C9.69254273,49.9828089 9.7156309,49.9382882 9.76180724,49.8937675 C9.80798358,49.8715072 9.85415993,49.8492468 9.90033627,49.8715072 L12.8787103,50.7174001 C12.9479748,50.7396604 12.9941512,50.7841811 12.9941512,50.8509621 L13.4097382,61.4246234 C13.4097382,61.4691441 13.3866501,61.5136648 13.3404737,61.5581854 C13.3173856,61.5804458 13.2712092,61.5804458 13.248121,61.5804458 Z M10.408276,60.5342098 L13.0634157,61.2242804 L12.6478286,50.9622638 L9.99268895,50.2054122 L10.408276,60.5342098 Z" id="形状" fill="#231F20"></path>
                <polygon id="路径" fill="#455A64" points="13.248121 61.4246234 24.5151484 56.9280348 24.8383828 46.9331423 12.832534 50.8509621"></polygon>
                <path d="M13.248121,61.5804458 C13.2250329,61.5804458 13.1788565,61.5804458 13.1557684,61.5581854 C13.109592,61.5359251 13.0865038,61.4914044 13.0865038,61.4246234 L12.6709168,50.8509621 C12.6709168,50.7841811 12.7170931,50.7174001 12.7863576,50.6951397 L24.7922065,46.77732 C24.8383828,46.7550596 24.9076473,46.77732 24.9307355,46.7995803 C24.9769118,46.8218406 25,46.8886216 25,46.9331423 L24.6998538,56.9280348 C24.6998538,56.9948158 24.6536774,57.0393365 24.6075011,57.0615968 L13.3173856,61.5581854 C13.2942974,61.5804458 13.2712092,61.5804458 13.248121,61.5804458 Z M12.9941512,50.9622638 L13.4097382,61.20202 L24.3766194,56.8167331 L24.6767656,47.1334854 L12.9941512,50.9622638 Z" id="形状" fill="#231F20"></path>
                <path d="M11.5395964,59.955441 C11.4472437,59.955441 11.3779792,59.88866 11.3779792,59.7996186 L11.0085685,51.1403465 C11.0085685,51.0513052 11.077833,50.9845241 11.1701857,50.9845241 C11.1701857,50.9845241 11.1701857,50.9845241 11.1701857,50.9845241 C11.2625383,50.9845241 11.3318029,51.0513052 11.3318029,51.1403465 L11.7012136,59.7996186 C11.7012136,59.8663996 11.6319491,59.955441 11.5395964,59.955441 C11.5626846,59.955441 11.5626846,59.955441 11.5395964,59.955441 L11.5395964,59.955441 Z" id="路径" fill="#D1D3D4"></path>
                <path d="M19.6666325,47.9125973 C19.5742799,47.9125973 19.5050153,47.8458163 19.5050153,47.7567749 L19.5050153,47.7567749 L19.5050153,46.1095098 L17.565609,46.7995803 C17.4732563,46.8218406 17.3809036,46.77732 17.3578155,46.7105389 C17.3347273,46.6214976 17.3809036,46.5324562 17.4501681,46.5101959 L19.6204562,45.7533443 C19.6666325,45.731084 19.735897,45.731084 19.7589852,45.7756047 C19.8051616,45.797865 19.8282497,45.8423857 19.8282497,45.9091667 L19.8282497,47.7790352 C19.8282497,47.8458163 19.7589852,47.9125973 19.6666325,47.9125973 C19.6666325,47.9125973 19.6666325,47.9125973 19.6666325,47.9125973 Z" id="路径" fill="#231F20"></path>
                <path d="M17.9119316,43.571831 C17.9350197,43.6163517 18.7200175,46.7105389 18.6045767,47.0889647 C18.3967831,47.7567749 17.2654628,48.1129403 16.618994,48.157461 C15.8801725,48.224242 15.0489984,47.7122542 14.6795876,47.1334854 C14.4487059,46.77732 14.4256178,46.3321132 14.6103231,45.9536874 C14.7488521,45.731084 14.9335575,45.5530013 15.141351,45.3971789 C15.2106156,45.3526582 15.2567919,45.3081375 15.2567919,45.2190962 C15.2567919,45.1745755 15.2567919,45.1077945 15.2337037,45.0632738 C15.0259102,44.4622446 14.8181167,43.8612155 14.6103231,43.2824466 C15.0951747,43.1711449 15.7878198,43.371488 16.2726714,43.4160087 C16.4112004,43.4160087 17.8888434,43.4827897 17.9119316,43.571831 Z" id="路径" fill="#FFA8A7"></path>
                <path d="M16.5035531,48.291023 C15.6954671,48.2465024 14.9566457,47.8458163 14.5410586,47.1780061 C14.2870887,46.77732 14.2409124,46.2875925 14.4487059,45.864646 C14.5872349,45.6420426 14.7719403,45.4416996 14.9797339,45.2858772 L15.002822,45.2636169 C15.0259102,45.2413565 15.0720865,45.1968358 15.0720865,45.1745755 C15.0720865,45.1523152 15.0720865,45.1300548 15.0489984,45.1077945 L14.4256178,43.3269673 C14.4025296,43.2824466 14.4025296,43.237926 14.4256178,43.2156656 C14.4487059,43.1711449 14.4717941,43.1488846 14.5179704,43.1266243 C14.9335575,43.0598432 15.3722328,43.0821036 15.7878198,43.1934053 C15.949437,43.2156656 16.1110542,43.237926 16.2495832,43.2601863 L16.4573768,43.2824466 C17.9581079,43.371488 17.9581079,43.4160087 18.0042842,43.5495707 L18.0042842,43.5495707 L17.842667,43.5940914 L18.0042842,43.571831 C18.2582541,44.5290257 18.8123702,46.77732 18.6969294,47.1557457 C18.4660477,47.9125973 17.2654628,48.2687627 16.5728176,48.3355437 L16.5035531,48.3355437 L16.5035531,48.291023 Z M14.8412048,43.3937483 L15.3953209,44.9964928 C15.4184091,45.0632738 15.4414973,45.1523152 15.4184091,45.2190962 C15.3953209,45.3303979 15.3260564,45.4194392 15.2337037,45.4862203 L15.2106156,45.5084806 C15.0259102,45.6420426 14.864293,45.8201253 14.7488521,45.9982081 C14.5872349,46.3321132 14.6103231,46.7105389 14.8181167,47.0221837 C15.1644392,47.6009525 15.9725252,48.023899 16.618994,47.9793783 C17.2654628,47.9348576 18.2813423,47.6009525 18.4660477,47.0221837 C18.5353122,46.7995803 18.1659014,45.1523152 17.7964907,43.6831327 C17.565609,43.6386121 16.7806112,43.5940914 16.5266413,43.571831 L16.3188478,43.5495707 C16.1803187,43.5273104 15.9956134,43.50505 15.8339962,43.4827897 C15.4876736,43.4160087 15.1644392,43.3937483 14.8412048,43.3937483 Z" id="形状" fill="#231F20"></path>
                <polygon id="路径" fill="#231F20" points="13.7329726 41.7464832 14.1716479 43.8834758 18.4429595 43.8834758 17.7734025 41.2344954"></polygon>
                <path d="M7.26828479,17.0597666 C7.01431491,17.0375062 6.76034503,16.9707252 6.52946332,16.8816839 C6.34475796,16.8371632 6.18314076,16.7258615 6.04461174,16.5700391 C5.92917088,16.4142167 5.92917088,16.1916133 6.06769991,16.0580513 C6.11387625,16.035791 6.16005259,15.9912703 6.18314076,15.9467496 C6.18314076,15.9022289 6.16005259,15.8354479 6.11387625,15.8131876 C5.37505478,14.9450343 4.82093868,13.943319 4.49770429,12.8525624 C4.33608709,12.3628349 4.26682258,11.8508471 4.33608709,11.3388593 C4.38226344,11.0049542 4.54388063,10.6710491 4.79785051,10.4261854 C4.98255588,10.2258423 5.25961393,10.1813216 5.35196661,9.91419757 C5.97534722,8.22241176 8.03019443,8.06658938 9.57710188,8.22241176 C10.4775405,8.31145312 11.6550373,8.64535821 11.9782716,9.51351146 C12.5785641,11.1162559 12.2553297,12.8970831 11.4010674,14.3662655 C10.5468051,15.8354479 9.09225029,17.28237 7.26828479,17.0597666 Z" id="路径" fill="#000000"></path>
                <path d="M7.61460735,17.2378493 C7.4991665,17.2378493 7.36063747,17.2378493 7.24519662,17.215589 L7.24519662,17.215589 C6.99122674,17.1933286 6.71416869,17.1265476 6.46019881,17.0375062 C6.25240527,16.9707252 6.04461174,16.8371632 5.90608271,16.6813408 C5.74446552,16.4587374 5.76755369,16.1470927 5.97534722,15.9690099 L6.02152357,15.9467496 L6.02152357,15.9467496 C6.02152357,15.9467496 6.02152357,15.9467496 6.02152357,15.9244893 C5.25961393,15.0340757 4.70549783,14.0101001 4.38226344,12.8970831 C4.19755807,12.3850953 4.15138173,11.8508471 4.22064624,11.316599 C4.28991075,10.9381732 4.45152795,10.6042681 4.70549783,10.3148837 C4.77476234,10.2481027 4.86711502,10.1813216 4.95946771,10.1145406 C5.09799673,10.0254993 5.19034942,9.95871825 5.23652576,9.84741655 C5.90608271,8.06658938 7.98401809,7.88850667 9.62327822,8.04432904 C10.2466588,8.11111006 11.7704781,8.3559738 12.162977,9.4244701 C12.7401813,10.9604335 12.5323877,12.7857814 11.5857727,14.4107862 C10.5468051,16.2138737 9.06916212,17.2378493 7.61460735,17.2378493 Z M7.29137296,16.9039442 C9.43857285,17.1488079 10.9162158,14.9450343 11.3087147,14.2549638 C12.2091534,12.7190004 12.4169469,10.9826939 11.8628308,9.5357718 C11.5165082,8.62309787 10.1543061,8.40049448 9.60019005,8.3559738 C8.07637077,8.20015142 6.13696442,8.3559738 5.53667198,9.95871825 C5.46740747,10.136801 5.32887844,10.2926233 5.14417307,10.3816647 C5.07490856,10.4261854 5.00564405,10.4707061 4.93637954,10.5374871 C4.70549783,10.7823508 4.5669688,11.0717352 4.52079246,11.38338 C4.45152795,11.8731075 4.52079246,12.3628349 4.68240966,12.8303021 C5.00564405,13.8987984 5.53667198,14.8782533 6.27549344,15.7464065 C6.34475796,15.8131876 6.3909343,15.9244893 6.36784613,16.0135306 C6.34475796,16.0803116 6.29858162,16.1470927 6.2293171,16.1916133 C6.13696442,16.2806547 6.13696442,16.4142167 6.20622893,16.5032581 C6.32166979,16.6145598 6.46019881,16.7036011 6.62181601,16.7481218 C6.82960955,16.8149028 7.06049125,16.8816839 7.29137296,16.9039442 L7.29137296,16.9039442 Z" id="形状" fill="#231F20"></path>
                <path d="M12.5092996,13.3868105 C12.5092996,13.3868105 13.8715017,14.855993 13.7098845,15.2344187 C13.5482673,15.6128445 12.7170931,15.5015428 12.7170931,15.5015428" id="路径" fill="#FFA8A7"></path>
                <path d="M12.9941512,15.6796255 C12.9017985,15.6796255 12.7863576,15.6796255 12.6940049,15.6573652 C12.6016523,15.6351048 12.5554759,15.5460635 12.5785641,15.4792825 C12.6016523,15.4125015 12.6709168,15.3457204 12.7401813,15.3679808 C12.971063,15.3902411 13.4559146,15.3902411 13.5482673,15.1898981 C13.5944436,15.0340757 13.0634157,14.2549638 12.3938587,13.5203726 C12.3245942,13.4535916 12.3476824,13.3645502 12.4169469,13.2977692 C12.4862114,13.2309882 12.5785641,13.2532485 12.6478286,13.2977692 C12.6478286,13.2977692 12.6478286,13.2977692 12.6478286,13.2977692 C13.0865038,13.7652363 14.056207,14.9005136 13.8715017,15.3011998 C13.6867963,15.6128445 13.2712092,15.6796255 12.9941512,15.6796255 Z" id="路径" fill="#231F20"></path>
                <path d="M11.9320953,11.2720783 C12.7401813,11.7395454 12.7170931,12.9416038 12.8094458,13.7207156 C12.971063,14.8114723 13.109592,15.9022289 13.2019447,16.9929856 C13.2712092,17.6830561 11.4241555,17.9724405 11.077833,17.7943578 L11.7935663,20.4655985 L7.68387187,19.575185 L7.31446113,16.4142167 C7.31446113,16.4142167 8.53813419,16.2583944 9.04607395,14.7446913 C9.5540137,13.2309882 9.18460297,11.0939956 9.18460297,11.0939956 C9.18460297,11.0939956 11.1470975,10.8268715 11.9320953,11.2720783 Z" id="路径" fill="#FFA8A7"></path>
                <path d="M11.7935663,20.6214209 L11.7704781,20.6214209 L7.6607837,19.7310073 C7.59151918,19.708747 7.54534284,19.6642263 7.54534284,19.5974453 L7.17593211,16.4364771 C7.17593211,16.3474357 7.22210845,16.2806547 7.31446113,16.2583944 C7.36063747,16.2583944 8.4457815,16.0803116 8.90754492,14.7001706 C9.39239651,13.2532485 9.04607395,11.1385162 9.04607395,11.1162559 C9.04607395,11.0717352 9.04607395,11.0272146 9.06916212,11.0049542 C9.09225029,10.9826939 9.13842663,10.9604335 9.18460297,10.9381732 C9.27695565,10.9159129 11.1932738,10.6487888 12.024448,11.1162559 C12.7632695,11.5392024 12.8556221,12.496397 12.9479748,13.2532485 C12.971063,13.4090709 12.971063,13.5426329 12.9941512,13.676195 C13.1557684,14.7669516 13.2942974,15.8577082 13.3866501,16.9484649 C13.4097382,17.1933286 13.2712092,17.415932 13.0403275,17.5494941 C12.5092996,17.8388785 11.9090071,17.9947008 11.3087147,17.9724405 L11.9551835,20.4210779 C11.9782716,20.5101192 11.9320953,20.5991606 11.8397426,20.6214209 C11.8166544,20.6436813 11.8166544,20.6436813 11.7935663,20.6214209 L11.7935663,20.6214209 Z M7.84548906,19.4638833 L11.5626846,20.2652555 L10.9162158,17.8388785 C10.8931276,17.7498371 10.939304,17.6607958 11.0316566,17.6385354 C11.077833,17.6385354 11.1240093,17.6385354 11.1470975,17.6607958 C11.3318029,17.7498371 12.3476824,17.6607958 12.8556221,17.3268907 C12.9941512,17.2378493 13.0634157,17.1265476 13.0634157,17.0152459 C12.9479748,15.9244893 12.832534,14.8337326 12.6709168,13.7652363 C12.6478286,13.6316743 12.6478286,13.4981122 12.6247404,13.3422899 C12.5554759,12.6522193 12.4631232,11.7840661 11.8628308,11.4279007 L11.8628308,11.4279007 C11.2625383,11.0939956 9.8772481,11.2052973 9.39239651,11.2720783 C9.46166102,11.8063264 9.64636639,13.5426329 9.20769114,14.8337326 C8.7690159,16.1248323 7.86857723,16.4809978 7.4991665,16.5700391 L7.84548906,19.4638833 Z" id="形状" fill="#231F20"></path>
                <path d="M13.0634157,16.169353 C13.0634157,16.169353 12.6709168,16.0135306 11.6088609,16.0135306" id="路径" fill="#FFFFFF"></path>
                <path d="M13.0634157,16.3474357 C13.0403275,16.3474357 13.0172393,16.3474357 13.0172393,16.3474357 C12.5554759,16.236134 12.0937125,16.1916133 11.6088609,16.2138737 L11.6088609,16.2138737 C11.5165082,16.2138737 11.4472437,16.1470927 11.4472437,16.0580513 C11.4472437,15.9690099 11.5395964,15.9022289 11.6319491,15.9022289 C11.6319491,15.9022289 11.6319491,15.9022289 11.6319491,15.9022289 C12.6940049,15.9022289 13.109592,16.0580513 13.109592,16.0580513 C13.2019447,16.0803116 13.2250329,16.1916133 13.2019447,16.2583944 C13.2019447,16.2583944 13.2019447,16.2583944 13.2019447,16.2583944 C13.1788565,16.302915 13.1326802,16.3474357 13.0634157,16.3474357 Z" id="路径" fill="#231F20"></path>
                <path d="M10.4544524,14.4107862 C10.3851879,14.1436621 10.2466588,13.8987984 10.0157771,13.7207156 C9.8772481,13.5426329 9.7156309,13.4090709 9.53092553,13.2755089 C9.34622017,13.1642072 9.11533846,13.1196865 8.90754492,13.1864675 C8.72283955,13.2532485 8.58431053,13.4090709 8.51504602,13.5871536 C8.4457815,13.7652363 8.4457815,13.9655794 8.46886968,14.1436621 C8.56122236,14.989555 9.11533846,15.7018859 9.90033627,16.0580513 L9.83107175,16.0135306" id="路径" fill="#FFA8A7"></path>
                <path d="M9.90033627,16.1916133 C9.8772481,16.1916133 9.85415993,16.1916133 9.83107175,16.169353 C8.97680943,15.8131876 8.39960516,15.0340757 8.30725248,14.1436621 C8.28416431,13.943319 8.30725248,13.7207156 8.37651699,13.5203726 C8.4457815,13.2977692 8.63048687,13.1196865 8.86136858,13.0306451 C9.11533846,12.9416038 9.41548468,12.9861244 9.64636639,13.1419468 C9.85415993,13.2755089 10.0157771,13.4313312 10.1543061,13.6094139 C10.3851879,13.8320173 10.5468051,14.0991414 10.6160696,14.3885258 C10.6391577,14.4775672 10.5698932,14.5443482 10.4775405,14.5666085 C10.3851879,14.5888689 10.3159233,14.5220879 10.2928352,14.4330465 C10.2235707,14.1881828 10.0850416,13.9878397 9.90033627,13.809757 C9.76180724,13.6539346 9.62327822,13.5203726 9.46166102,13.4090709 C9.323132,13.3200295 9.13842663,13.2755089 8.97680943,13.3200295 C8.83828041,13.3868105 8.72283955,13.4981122 8.67666321,13.6316743 C8.63048687,13.7874967 8.6073987,13.9655794 8.63048687,14.1214018 C8.69975138,14.8337326 9.1615148,15.4792825 9.80798358,15.8354479 C9.85415993,15.8354479 9.8772481,15.8354479 9.92342444,15.8577082 L9.99268895,15.9022289 C10.0619535,15.9467496 10.0850416,16.035791 10.0388653,16.102572 C9.99268895,16.169353 9.94651261,16.1916133 9.90033627,16.1916133 Z" id="路径" fill="#231F20"></path>
                <path d="M11.077833,17.7943578 C11.077833,17.7943578 10.0850416,17.6385354 9.53092553,17.0820269 C9.7156309,17.9501802 10.4313642,18.6179904 11.3318029,18.7738127 L11.077833,17.7943578 Z" id="路径" fill="#231F20"></path>
                <path d="M11.3318029,18.9296351 L11.3087147,18.9296351 C9.66945456,18.6402507 9.36930834,17.1265476 9.36930834,17.1042873 C9.34622017,17.0152459 9.41548468,16.9484649 9.50783736,16.9262045 C9.5540137,16.9262045 9.62327822,16.9262045 9.66945456,16.9707252 C10.1543061,17.5049734 11.1009212,17.6385354 11.1240093,17.6385354 C11.1932738,17.6385354 11.2394502,17.6830561 11.2625383,17.7498371 L11.5165082,18.7292921 C11.5395964,18.8183334 11.4934201,18.9073748 11.4010674,18.9296351 C11.354891,18.9296351 11.354891,18.9296351 11.3318029,18.9296351 L11.3318029,18.9296351 Z M9.8772481,17.5272337 C10.131218,18.0392215 10.5698932,18.395387 11.1240093,18.5512093 L10.9623921,17.9056595 C10.5698932,17.8611388 10.2004825,17.7275768 9.8772481,17.5272337 L9.8772481,17.5272337 Z" id="形状" fill="#231F20"></path>
                <circle id="椭圆形" fill="#231F20" transform="translate(11.751789, 12.743449) rotate(-88.820014) translate(-11.751789, -12.743449) " cx="11.751789" cy="12.7434494" r="1"></circle>
                <path d="M6.55255149,20.0871728 L6.96813857,18.6847714 C6.96813857,18.6847714 12.0475362,19.0854575 12.5092996,19.3748419 C12.971063,19.6642263 13.3866501,21.2224501 13.3866501,21.2224501 L6.55255149,20.0871728 Z" id="路径" fill="#37474F"></path>
                <path d="M13.3866501,21.4005328 L13.3635619,21.4005328 L6.52946332,20.2429951 C6.43711064,20.2207348 6.3909343,20.1539538 6.3909343,20.0649124 C6.3909343,20.0649124 6.3909343,20.0649124 6.3909343,20.0426521 L6.80652137,18.6402507 C6.82960955,18.5734697 6.89887406,18.528949 6.96813857,18.528949 C7.82240089,18.59573 12.1168007,18.9518954 12.5785641,19.2635402 C13.0403275,19.575185 13.4790027,21.0443674 13.5251791,21.2001897 C13.5482673,21.2447104 13.5251791,21.3114914 13.4790027,21.3337518 C13.4790027,21.4005328 13.4328264,21.4005328 13.3866501,21.4005328 Z M6.76034503,19.9758711 L13.1557684,21.0666277 C12.971063,20.4878589 12.6709168,19.708747 12.4169469,19.5306643 C12.1168007,19.3303212 9.04607395,19.0186765 7.08357942,18.8628541 L6.76034503,19.9758711 Z" id="形状" fill="#231F20"></path>
                <path d="M14.7026758,21.2447104 C12.2553297,19.708747 9.43857285,18.9073748 5.46740747,19.9981314 C2.3505044,20.8662847 1.58859476,34.7567366 2.18888721,40.2995611 L16.8498757,40.2995611 L16.7113467,37.8286634 C16.7113467,37.8509238 17.1500219,22.7806739 14.7026758,21.2447104 Z" id="路径" fill="#93B9FF"></path>
                <path d="M13.3866501,42.5701158 L18.8123702,42.5701158 C18.4660477,39.9433957 15.3953209,22.0460827 15.2567919,21.9125206 C12.5092996,19.3971022 10.4544524,25.674518 10.5929814,27.5889072 C10.6853341,29.1693913 12.8787103,39.2088045 13.3866501,42.5701158 Z" id="路径" fill="#93B9FF"></path>
                <path d="M12.832534,40.1437387 C12.7632695,40.1437387 12.6940049,40.0992181 12.6709168,40.0101767 L10.2004825,25.6522577 C10.1773943,25.5632163 10.2466588,25.4964353 10.3159233,25.474175 C10.3159233,25.474175 10.3159233,25.474175 10.3159233,25.474175 C10.408276,25.4519146 10.4775405,25.5186956 10.5006287,25.607737 C10.5006287,25.607737 10.5006287,25.607737 10.5006287,25.607737 L12.971063,39.965656 C12.9941512,40.0546974 12.9479748,40.1214784 12.832534,40.1437387 C12.8556221,40.1437387 12.8556221,40.1437387 12.832534,40.1437387 L12.832534,40.1437387 Z" id="路径" fill="#231F20"></path>
                <path d="M14.5410586,49.7602055 C14.4487059,49.7602055 14.3794414,49.6934244 14.3794414,49.6043831 L14.3794414,49.6043831 L14.3794414,47.5564318 C14.3794414,47.4896508 14.4256178,47.4228698 14.4717941,47.4006095 L16.1341424,46.77732 C16.2264951,46.7550596 16.3188478,46.77732 16.3419359,46.8663613 C16.3650241,46.9554027 16.3188478,47.044444 16.2495832,47.0667044 L14.7026758,47.6232129 L14.7026758,49.5598624 C14.7026758,49.6711641 14.6334113,49.7379451 14.5410586,49.7602055 C14.5410586,49.7379451 14.5410586,49.7602055 14.5410586,49.7602055 Z" id="路径" fill="#231F20"></path>
                <path d="M19.6666325,54.3458354 L19.6435444,54.3458354 L12.8787103,52.8989133 C12.7863576,52.8989133 12.7170931,52.809872 12.7401813,52.7208306 C12.7401813,52.6317893 12.832534,52.5650082 12.9248866,52.5872686 C12.9248866,52.5872686 12.9479748,52.5872686 12.9479748,52.5872686 L19.6435444,54.0119303 L24.6767656,48.8920522 C24.7460301,48.8252712 24.8383828,48.8252712 24.9076473,48.8920522 C24.9769118,48.9588332 24.9769118,49.0478746 24.9076473,49.1146556 C24.9076473,49.1146556 24.9076473,49.1146556 24.9076473,49.1146556 L19.8051616,54.3013147 C19.7589852,54.3235751 19.7128089,54.3458354 19.6666325,54.3458354 Z" id="路径" fill="#231F20"></path>
                <path d="M42.5644655,0 L43.1614838,0 C43.5594959,0 43.8911728,0.339695891 43.8911728,0.747330961 L43.8911728,69.8414753 L43.8911728,69.8414753 L41.8126646,69.8414753 L41.8126646,69.8414753 L41.8126646,0.747330961 C41.8347764,0.317049499 42.1443415,0 42.5644655,0 Z" id="路径" fill="#231F20"></path>
                <polygon id="路径" fill="#E3F7FF" points="50.1045854 4.57457134 36.6606179 4.57457134 36.6606179 3.01197024 31.1326707 7.65448075 36.6606179 12.2969913 36.6606179 10.7343902 50.1045854 10.7343902"></polygon>
                <path d="M36.6606179,12.455516 C36.6163943,12.455516 36.5942825,12.4328696 36.5721707,12.4102232 L31.0442236,7.76771271 C31,7.74506632 31,7.69977354 31,7.63183436 C31,7.58654157 31.0221118,7.54124879 31.0442236,7.51860239 L36.5721707,2.87609188 C36.6163943,2.83079909 36.6827297,2.83079909 36.7269533,2.85344549 C36.7711768,2.87609188 36.8154004,2.94403106 36.8154004,2.98932384 L36.8154004,4.39340019 L50.1045854,4.39340019 C50.1930325,4.39340019 50.2593679,4.46133937 50.2593679,4.55192494 L50.2593679,10.7117438 C50.2593679,10.8023293 50.1930325,10.8702685 50.1045854,10.8702685 L50.1045854,10.8702685 L36.8154004,10.8702685 L36.8154004,12.2743449 C36.8154004,12.3422841 36.7711768,12.3875768 36.7269533,12.4102232 C36.7048415,12.455516 36.6827297,12.455516 36.6606179,12.455516 Z M31.3537886,7.65448075 L36.4837236,11.9572954 L36.4837236,10.7343902 C36.4837236,10.6438046 36.5500589,10.5758654 36.6385061,10.5758654 L49.9276911,10.5758654 L49.9276911,4.75574248 L36.6606179,4.75574248 C36.5721707,4.75574248 36.5058354,4.6878033 36.5058354,4.59721773 L36.5058354,4.59721773 L36.5058354,3.35166613 L31.3537886,7.65448075 Z" id="形状" fill="#86B3FF"></path>
                <polygon id="路径" fill="#E3F7FF" points="35.8645935 15.1504368 49.308561 15.1504368 49.308561 13.5878357 54.8365082 18.2303462 49.308561 22.8728567 49.308561 21.2876092 35.8645935 21.2876092"></polygon>
                <path d="M49.308561,23.0313814 C49.2864492,23.0313814 49.2643374,23.0313814 49.2422256,23.008735 C49.1980021,22.9860886 49.1537785,22.9181495 49.1537785,22.8728567 L49.1537785,21.4687803 L35.8645935,21.4687803 C35.7761463,21.4687803 35.709811,21.4008412 35.709811,21.3102556 C35.709811,21.3102556 35.709811,21.3102556 35.709811,21.3102556 L35.709811,15.1504368 C35.709811,15.0598512 35.7761463,14.991912 35.8645935,14.991912 L35.8645935,14.991912 L49.1537785,14.991912 L49.1537785,13.5878357 C49.1537785,13.5198965 49.1980021,13.4746037 49.2422256,13.4519573 C49.2864492,13.4293109 49.3527846,13.4293109 49.4191199,13.4746037 L54.9470671,18.1171142 C55.0134025,18.162407 55.0134025,18.275639 54.9691789,18.3435781 C54.9691789,18.3435781 54.9470671,18.3662245 54.9470671,18.3662245 L49.4191199,23.008735 C49.3748964,23.008735 49.3306728,23.0313814 49.308561,23.0313814 Z M35.9972642,21.1517308 L49.2864492,21.1517308 C49.3748964,21.1517308 49.4412317,21.21967 49.4412317,21.3102556 C49.4412317,21.3102556 49.4412317,21.3102556 49.4412317,21.3102556 L49.4412317,22.5331608 L54.5711667,18.2303462 L49.4412317,13.9275315 L49.4412317,15.1504368 C49.4412317,15.2410223 49.3748964,15.3089615 49.2864492,15.3089615 L49.2864492,15.3089615 L35.9972642,15.3089615 L35.9972642,21.1517308 Z" id="形状" fill="#86B3FF"></path>
                <polygon id="路径" fill="#E3F7FF" points="36.4173882 24.1410547 48.6894309 29.7573601 49.308561 28.3306373 52.4926586 34.8754448 45.5937805 36.8003882 46.2350224 35.3736655 33.9629797 29.7573601"></polygon>
                <path d="M45.5937805,36.958913 C45.5495569,36.958913 45.5053333,36.9362666 45.4832216,36.9136202 C45.438998,36.8683274 45.438998,36.8003882 45.4611098,36.7550954 L46.0139045,35.4642511 L33.8745325,29.8932384 C33.8303089,29.870592 33.8081972,29.8479456 33.7860854,29.8026529 C33.7639736,29.7573601 33.7639736,29.7120673 33.7860854,29.6894209 L36.2404939,24.0731155 C36.2626057,23.9825299 36.3731646,23.9598835 36.4395,23.9825299 C36.4395,23.9825299 36.4395,23.9825299 36.4395,23.9825299 L48.578872,29.5535425 L49.1316667,28.2626982 C49.1537785,28.2174054 49.1980021,28.1721126 49.2643374,28.1721126 C49.3306728,28.1721126 49.3748964,28.2174054 49.3970082,28.2626982 L52.6032175,34.8075057 C52.6474411,34.8980912 52.6032175,34.9886768 52.5368821,35.0339696 C52.5368821,35.0339696 52.5147703,35.0339696 52.5147703,35.0339696 L45.6158923,36.958913 C45.6380041,36.958913 45.6158923,36.958913 45.5937805,36.958913 Z M34.1619858,29.6667745 L46.3013577,35.2377871 C46.3676931,35.2830799 46.4119167,35.3736655 46.3898049,35.4416047 L45.9033455,36.5739243 L52.3157643,34.7848593 L49.308561,28.715626 L48.8221016,29.8479456 C48.7778781,29.9385312 48.6894309,29.9611776 48.6230955,29.9385312 C48.6230955,29.9385312 48.6230955,29.9385312 48.6230955,29.9385312 L36.4837236,24.3675186 L34.1619858,29.6667745 Z" id="形状" fill="#86B3FF"></path>
                <path d="M47.2079411,70 L39.6457094,70 C39.5572622,70 39.4909268,69.9320608 39.4909268,69.8414753 C39.4909268,69.7508897 39.5572622,69.6829505 39.6457094,69.6829505 C39.6457094,69.6829505 39.6457094,69.6829505 39.6457094,69.6829505 L47.2079411,69.6829505 C47.2963882,69.6829505 47.3627236,69.7508897 47.3627236,69.8414753 C47.3627236,69.9320608 47.2963882,70 47.2079411,70 C47.2079411,70 47.2079411,70 47.2079411,70 Z" id="路径" fill="#D1D3D4"></path>
            </g>
        </g>
    </g>
</svg>