<?xml version="1.0" encoding="UTF-8"?>
<svg width="120px" height="100px" viewBox="0 0 120 100" version="1.1" xmlns="http://www.w3.org/2000/svg" xmlns:xlink="http://www.w3.org/1999/xlink">
    <title>Group 5</title>
    <g id="Symbols" stroke="none" stroke-width="1" fill="none" fill-rule="evenodd">
        <g id="Group-5">
            <g id="Group" transform="translate(20.000000, 20.000000)">
                <rect id="Rectangle-Copy-3" stroke="#BBBBBB" fill="#FFFFFF" x="6.5" y="0.5" width="73" height="53" rx="2"></rect>
                <rect id="Rectangle" stroke="#BBBBBB" fill="#FFFFFF" x="0.5" y="6.5" width="73" height="53" rx="2"></rect>
                <path d="M47.4966068,43.2947361 C48.1174665,43.7598081 48.1174665,44.379904 48.4278963,45 C46.5653173,44.2248801 45.1683831,42.6746403 43.3058042,42.0545443 C37.8732824,39.5741606 31.0438263,40.8143525 26.6978088,44.844976 L25.9217343,44.844976 C25.6113045,44.5349281 25.7665193,44.0698561 25.7665193,43.9148321 C28.5603877,41.2794245 32.4407605,39.7291846 36.3211333,39.5741606 C40.3567209,39.2641127 44.3923086,40.6593285 47.4966068,43.2947361 Z M26.0852138,27.1791351 L27.438685,28.5319513 L28.7850181,27.1860943 C29.0339126,26.9371999 29.4374503,26.9371999 29.6863448,27.1860943 C29.9352392,27.4349888 29.9352392,27.8385265 29.6863448,28.087421 L28.3402462,29.4335124 L29.693304,30.7872253 C29.9414298,31.0353511 29.9414298,31.4376425 29.693304,31.6857682 C29.4451782,31.933894 29.0428868,31.933894 28.7947611,31.6857682 L27.4415135,30.3322451 L26.0949567,31.678809 C25.8460622,31.9277035 25.4425246,31.9277035 25.1936301,31.678809 C24.9447356,31.4299145 24.9447356,31.0263769 25.1936301,30.7774824 L26.5399523,29.430684 L25.1866709,28.077678 C24.9385451,27.8295523 24.9385451,27.4272609 25.1866709,27.1791351 C25.4347966,26.9310093 25.837088,26.9310093 26.0852138,27.1791351 Z M45.2052389,27.1791351 L46.5587102,28.5319513 L47.9050433,27.1860943 C48.1539378,26.9371999 48.5574754,26.9371999 48.8063699,27.1860943 C49.0552644,27.4349888 49.0552644,27.8385265 48.8063699,28.087421 L47.4602713,29.4335124 L48.8133291,30.7872253 C49.0614549,31.0353511 49.0614549,31.4376425 48.8133291,31.6857682 C48.5652034,31.933894 48.162912,31.933894 47.9147862,31.6857682 L46.5615386,30.3322451 L45.2149819,31.678809 C44.9660874,31.9277035 44.5625497,31.9277035 44.3136552,31.678809 C44.0647608,31.4299145 44.0647608,31.0263769 44.3136552,30.7774824 L45.6599775,29.430684 L44.306696,28.077678 C44.0585702,27.8295523 44.0585702,27.4272609 44.306696,27.1791351 C44.5548218,26.9310093 44.9571132,26.9310093 45.2052389,27.1791351 Z" id="Combined-Shape" fill="#BBBBBB" fill-rule="nonzero"></path>
                <rect id="Rectangle" stroke="#BBBBBB" fill="#D9D9D9" x="1.5" y="13.5" width="72" height="1"></rect>
                <rect id="Rectangle-Copy-6" stroke="#BBBBBB" fill="#D9D9D9" x="73.5" y="7.5" width="6" height="1"></rect>
                <rect id="Rectangle" stroke="#BBBBBB" fill="#D8D8D8" x="64.5" y="9.5" width="1" height="1"></rect>
                <rect id="Rectangle-Copy-7" stroke="#BBBBBB" fill="#D8D8D8" x="70.5" y="3.5" width="1" height="1"></rect>
                <rect id="Rectangle-Copy-2" stroke="#BBBBBB" fill="#D8D8D8" x="60.5" y="9.5" width="1" height="1"></rect>
                <rect id="Rectangle-Copy-8" stroke="#BBBBBB" fill="#D8D8D8" x="66.5" y="3.5" width="1" height="1"></rect>
                <rect id="Rectangle-Copy" stroke="#BBBBBB" fill="#D8D8D8" x="68.5" y="9.5" width="1" height="1"></rect>
                <rect id="Rectangle-Copy-9" stroke="#BBBBBB" fill="#D8D8D8" x="74.5" y="3.5" width="1" height="1"></rect>
            </g>
            <rect id="Rectangle" fill="#BBBBBB" x="89" y="79" width="16" height="1" rx="0.5"></rect>
            <rect id="Rectangle-Copy-10" fill="#BBBBBB" x="107" y="79" width="8" height="1" rx="0.5"></rect>
            <rect id="Rectangle-Copy-11" fill="#BBBBBB" x="7" y="39" width="14" height="1" rx="0.5"></rect>
            <circle id="Oval" stroke="#BBBBBB" fill="#FFFFFF" cx="102.5" cy="10.5" r="2"></circle>
            <circle id="Oval-Copy" stroke="#BBBBBB" fill="#FFFFFF" cx="15" cy="90" r="1.5"></circle>
            <g id="Group-3" opacity="0.5" transform="translate(11.000000, 18.000000)" fill="#FFFFFF" stroke="#BBBBBB">
                <rect id="Rectangle" x="0.5" y="3.5" width="6" height="1"></rect>
                <rect id="Rectangle-Copy-12" x="3.5" y="0.5" width="1" height="6"></rect>
            </g>
            <g id="Group-4" opacity="0.5" transform="translate(97.000000, 87.000000)" fill="#FFFFFF" stroke="#BBBBBB">
                <rect id="Rectangle" x="0.5" y="2.5" width="4" height="1"></rect>
                <rect id="Rectangle-Copy-12" x="2.5" y="0.5" width="1" height="4"></rect>
            </g>
        </g>
    </g>
</svg>
