<svg xmlns:xlink="http://www.w3.org/1999/xlink" xmlns="http://www.w3.org/2000/svg" version="1.1" width="16px" height="16px">
    <g transform="matrix(1 0 0 1 -12 -12 )">
        <path d="M 0.057556521477875 1.80253723606419  C 0.057556521477875 2.77726118703639  0.847669868202649 3.56746095713519  1.82239381334459 3.56756756756757  C 2.7973862044475 3.567567578125  3.5876172055995 2.777336576973  3.5876172055995 1.80253723606419  C 3.5876172055995 0.827737895155375  2.7973862044475 0.0375068940033783  1.82258686353869 0.0375068940033783  C 0.847669868202648 0.0376135149931846  0.057556521477875 0.827813285091985  0.057556521477875 1.80253723606419  Z M 6.23516270813328 1.80253723606419  C 6.23516270813328 2.77726118703639  7.02527605485805 3.56746095713519  8 3.56756756756757  C 8.97499239110291 3.567567578125  9.7652233922549 2.777336576973  9.7652233922549 1.80253723606419  C 9.7652233922549 0.827737895155375  8.97499239110291 0.0375068940033783  8.00019305019409 0.0375068940033783  C 7.02527605485805 0.0376135149931846  6.23516270813328 0.827813285091985  6.23516270813328 1.80253723606419  Z M 12.4127688947887 1.80253723606419  C 12.4127688947887 2.77726118703639  13.2028822415135 3.56746095713519  14.1776061866554 3.56756756756757  C 15.1525985777583 3.567567578125  15.9428295789103 2.777336576973  15.9428295789103 1.80253723606419  C 15.9428295789103 0.827737895155375  15.1525985777583 0.0375068940033783  14.1777992368495 0.0375068940033783  C 13.2028822415135 0.0376135149931846  12.4127688947887 0.827813285091985  12.4127688947887 1.80253723606419  Z M 1.82239381334459 9.74517375422297  C 2.79719315425341 9.74517375422297  3.58742415540541 8.95494275307098  3.58742415540541 7.98014341216216  C 3.58742415540541 7.00534407125335  2.79719315425341 6.21511307010135  1.82239381334459 6.21511307010135  C 0.84759447243578 6.21511307010135  0.0573634712837841 7.00534407125335  0.0573634712837841 7.98014341216216  C 0.0573634712837841 8.95494275307098  0.84759447243578 9.74517375422297  1.82239381334459 9.74517375422297  Z M 8 9.74517375422297  C 8.97479934090881 9.74517375422297  9.76503034206081 8.95494275307098  9.76503034206081 7.98014341216216  C 9.76503034206081 7.00534407125335  8.97479934090881 6.21511307010135  8 6.21511307010135  C 7.02520065909119 6.21511307010135  6.23496965793919 7.00534407125335  6.23496965793919 7.98014341216216  C 6.23496965793919 8.95494275307098  7.02520065909119 9.74517375422297  8 9.74517375422297  Z M 14.1776061866554 9.74517375422297  C 15.1524055275642 9.74517375422297  15.9426365287162 8.95494275307098  15.9426365287162 7.98014341216216  C 15.9426365287162 7.00534407125335  15.1524055275642 6.21511307010135  14.1776061866554 6.21511307010135  C 13.2028068457466 6.21511307010135  12.4125758445946 7.00534407125335  12.4125758445946 7.98014341216216  C 12.4125758445946 8.95494275307098  13.2028068457466 9.74517375422297  14.1776061866554 9.74517375422297  Z M 0.0575565214814577 14.1577495882601  C 0.0575565214814577 15.1324735392309  0.847669868204049 15.9226733093292  1.82239381334459 15.9227799197635  C 2.79738620445108 15.9227799303209  3.58761720560308 15.1325489291689  3.58761720560308 14.1577495882601  C 3.58761720560308 13.1829502473513  2.79738620445108 12.3927192461993  1.82258686354227 12.3927192461993  C 0.84766986820405 12.3928258671911  0.0575565214814577 13.1830256372893  0.0575565214814577 14.1577495882601  Z M 6.23516270813686 14.1577495882601  C 6.23516270813686 15.1324735392309  7.02527605485946 15.9226733093292  8 15.9227799197635  C 8.97499239110649 15.9227799303209  9.76522339225848 15.1325489291689  9.76522339225848 14.1577495882601  C 9.76522339225848 13.1829502473513  8.97499239110649 12.3927192461993  8.00019305019767 12.3927192461993  C 7.02527605485946 12.3928258671911  6.23516270813686 13.1830256372893  6.23516270813686 14.1577495882601  Z M 12.4127688947923 14.1577495882601  C 12.4127688947923 15.1324735392309  13.2028822415149 15.9226733093292  14.1776061866554 15.9227799197635  C 15.1525985777619 15.9227799303209  15.9428295789139 15.1325489291689  15.9428295789139 14.1577495882601  C 15.9428295789139 13.1829502473513  15.1525985777619 12.3927192461993  14.1777992368531 12.3927192461993  C 13.2028822415149 12.3928258671911  12.4127688947923 13.1830256372893  12.4127688947923 14.1577495882601  Z " fill-rule="nonzero" fill="#ffffff" stroke="none" transform="matrix(1 0 0 1 12 12 )"/>
    </g>
</svg>