<?xml version="1.0" encoding="UTF-8"?>
<svg width="97px" height="79px" viewBox="0 0 97 79" version="1.1" xmlns="http://www.w3.org/2000/svg" xmlns:xlink="http://www.w3.org/1999/xlink">
    <title>编组</title>
    <g id="Symbols" stroke="none" stroke-width="1" fill="none" fill-rule="evenodd">
        <g id="M_Message信息组件/M07缺省页/暂无记录备份" transform="translate(-11.000000, -8.000000)">
            <g id="编组" transform="translate(11.000000, 8.000000)">
                <rect id="Rectangle" stroke="#BBBBBB" fill="#FFFFFF" x="24.5" y="15.5" width="49" height="59" rx="2"></rect>
                <g id="Group-18" transform="translate(71.920310, 50.920310) rotate(-45.000000) translate(-71.920310, -50.920310) translate(49.420310, 42.420310)" stroke="#BBBBBB">
                    <path d="M6.67559769,3.75256752 C8.23620268,4.10914145 9.75525598,4.20954451 11.2327576,4.05377669 C12.1346942,3.95868867 12.9950792,3.60742977 13.8139124,3 C13.2668069,3.24664053 12.9154274,4.10816996 12.7597737,5.5845883 C12.6041201,7.06100663 12.7046438,8.57891543 13.0613449,10.1383147 L2.8139124,14 L6.67559769,3.75256752 Z" id="Path" stroke-linecap="round" stroke-linejoin="round" transform="translate(8.313912, 8.500000) rotate(45.000000) translate(-8.313912, -8.500000) "></path>
                    <rect id="Rectangle" fill="#EFEFEF" stroke-linecap="round" stroke-linejoin="round" x="11.8139124" y="4" width="33" height="9" rx="2"></rect>
                    <path d="M42.5357378,12.3109491 L42.5357378,13.7218254 C42.5357378,14.2741102 42.0880226,14.7218254 41.5357378,14.7218254 L23.5357378,14.7218254 C22.9834531,14.7218254 22.5357378,14.2741102 22.5357378,13.7218254" id="Path" stroke-width="0.5"></path>
                    <path d="M1,8.5 C1.23574723,8.5 3.08099317,8.5 6.53573781,8.5" id="Path-12" stroke-width="0.5"></path>
                    <path d="M7.53573781,9.5 C8.08802256,9.5 8.53573781,9.05228475 8.53573781,8.5 C8.53573781,7.94771525 8.08802256,7.5 7.53573781,7.5 C6.98345306,7.5 6.53573781,7.94771525 6.53573781,8.5 C6.53573781,9.05228475 6.98345306,9.5 7.53573781,9.5 Z" id="Oval" stroke-width="0.5" stroke-linecap="round" stroke-linejoin="round"></path>
                    <rect id="Rectangle" x="31.0357378" y="5.22182541" width="1" height="7"></rect>
                    <rect id="Rectangle-Copy-16" x="35.0357378" y="7.22182541" width="2" height="1" rx="0.5"></rect>
                    <rect id="Rectangle-Copy-17" x="39.0357378" y="7.22182541" width="5" height="1" rx="0.5"></rect>
                </g>
                <path d="M49,9.5 C50.0784829,9.5 51.0684,9.87932253 51.843451,10.5119948 C52.7328761,11.2380303 53.3398167,12.2973511 53.4725456,13.4997924 L53.4725456,13.4997924 L58,13.5 C58.4142136,13.5 58.7892136,13.6678932 59.0606602,13.9393398 C59.3321068,14.2107864 59.5,14.5857864 59.5,15 L59.5,15 L59.5,18 C59.5,18.4142136 59.3321068,18.7892136 59.0606602,19.0606602 C58.7892136,19.3321068 58.4142136,19.5 58,19.5 L58,19.5 L40,19.5 C39.5857864,19.5 39.2107864,19.3321068 38.9393398,19.0606602 C38.6678932,18.7892136 38.5,18.4142136 38.5,18 L38.5,18 L38.5,15 C38.5,14.5857864 38.6678932,14.2107864 38.9393398,13.9393398 C39.2107864,13.6678932 39.5857864,13.5 40.0000229,13.5 L40.0000229,13.5 L44.5274544,13.4997924 C44.6601833,12.2973511 45.2671239,11.2380303 46.156549,10.5119948 C46.9316,9.87932253 47.9215171,9.5 49,9.5 Z" id="Combined-Shape" stroke="#BBBBBB" fill="#EFEFEF"></path>
                <line x1="33" y1="29.5" x2="65" y2="29.5" id="Path-13" stroke="#BBBBBB" opacity="0.5" stroke-linecap="round"></line>
                <line x1="33" y1="41.5" x2="65" y2="41.5" id="Path-13-Copy" stroke="#BBBBBB" opacity="0.5" stroke-linecap="round"></line>
                <line x1="33" y1="52.5" x2="55.5" y2="52.5" id="Path-13-Copy-2" stroke="#BBBBBB" opacity="0.5" stroke-linecap="round"></line>
                <line x1="33" y1="64.5" x2="52.5" y2="64.5" id="Path-13-Copy-3" stroke="#BBBBBB" opacity="0.5" stroke-linecap="round"></line>
                <rect id="Rectangle" fill="#BBBBBB" x="70" y="74" width="16" height="1" rx="0.5"></rect>
                <rect id="Rectangle-Copy-10" fill="#BBBBBB" x="88" y="74" width="8" height="1" rx="0.5"></rect>
                <rect id="Rectangle-Copy-11" fill="#BBBBBB" x="77" y="19" width="9" height="1" rx="0.5"></rect>
                <rect id="Rectangle-Copy-12" fill="#BBBBBB" x="81" y="16" width="16" height="1" rx="0.5"></rect>
                <rect id="Rectangle-Copy-13" fill="#BBBBBB" x="9" y="42" width="16" height="1" rx="0.5"></rect>
                <circle id="Oval" stroke="#BBBBBB" fill="#FFFFFF" cx="91.5" cy="2.5" r="2"></circle>
                <rect id="Rectangle" stroke="#BBBBBB" fill="#FFFFFF" x="0.5" y="13.5" width="6" height="1"></rect>
                <rect id="Rectangle-Copy-12" stroke="#BBBBBB" fill="#FFFFFF" x="3.5" y="10.5" width="1" height="6"></rect>
                <circle id="Oval-Copy" stroke="#BBBBBB" fill="#FFFFFF" cx="14" cy="77" r="1.5"></circle>
            </g>
        </g>
    </g>
</svg>