<?xml version="1.0" encoding="UTF-8"?>
<svg width="140px" height="65px" viewBox="0 0 140 65" version="1.1" xmlns="http://www.w3.org/2000/svg" xmlns:xlink="http://www.w3.org/1999/xlink">
    <title>画板</title>
    <g id="画板" stroke="none" stroke-width="1" fill="none" fill-rule="evenodd">
        <g id="编组-33备份-6" fill-rule="nonzero">
            <rect id="矩形" fill="#000000" x="0" y="0" width="64.8417367" height="64.8417367"></rect>
            <polygon id="路径" fill="#FFEC02" points="12.3755612 53.2365395 33.1512604 32.4208683 12.3755612 11.6051972 138.374845 11.6051972 138.374845 53.2365395"></polygon>
            <path d="M136.903766,13.0785046 L136.903766,51.7624952 L15.8007448,51.7624952 L35.1256951,32.4204999 L15.8007448,13.0785046 L136.903766,13.0785046 M139.848521,10.1311529 L8.69137165,10.1311529 L13.7184354,15.1626506 L30.9610762,32.4204999 L13.7184354,49.6787176 L8.69137165,54.7098469 L139.848521,54.7098469 L139.848521,10.1311529 Z" id="形状" fill="#000000"></path>
            <g id="编组-32" transform="translate(36.874258, 19.710414)" fill="#000000">
                <path d="M15.6864681,14.931652 L21.4492775,16.9428511 C20.8336616,18.6462223 19.9245543,20.22865 18.7631348,21.6184561 C17.7422113,22.8243463 16.4687668,23.7911579 15.0328929,24.4504926 C13.4102878,25.1295352 11.6616637,25.4551965 9.90339572,25.405803 C7.46004119,25.405803 5.52682411,25.0178578 4.10374448,24.2419675 C2.68066485,23.4660772 1.56435541,22.1012077 0.75481615,20.1473592 C-0.0542318828,18.1937563 -0.212897648,15.6926828 0.278818855,12.6441387 C0.934113376,8.58047758 2.42682419,5.45714446 4.75695129,3.27413932 C7.0870784,1.09113419 10.0613246,-1.04710966e-14 13.67969,-1.04710966e-14 C16.5108669,-1.04710966e-14 18.6354163,0.625698239 20.053338,1.87709463 C21.4712598,3.12849103 22.3647986,5.05016432 22.7339544,7.64211449 L16.3603064,9.13347444 C16.3144354,8.5673315 16.1761682,8.01252034 15.9509929,7.49106272 C15.6821198,6.93906824 15.2627018,6.4743112 14.7411051,6.15038613 C14.1934365,5.82794965 13.5664057,5.66535302 12.9310627,5.68102038 C11.3564401,5.68102038 10.0384827,6.37303399 8.97719046,7.75706121 C8.17772132,8.78347643 7.60053162,10.3958006 7.24562136,12.5940337 C6.80671157,15.317141 6.88395675,17.1837971 7.47735688,18.1940019 C8.07075702,19.2042067 9.05234793,19.7091862 10.4221296,19.7089406 C11.6151375,19.7615592 12.7768461,19.3187686 13.632164,18.4854213 C14.5664721,17.463771 15.2674357,16.2511643 15.6864681,14.931652 Z" id="路径"></path>
                <polygon id="路径" points="26.8182469 0.418892397 33.0740008 0.418892397 29.1109181 24.9869106 22.8551642 24.9869106"></polygon>
                <path d="M33.2873154,16.1385925 C33.658675,13.5474467 34.9327198,11.1705345 36.8849266,9.42673593 C38.8449154,7.66716698 41.250814,6.7872597 44.1026224,6.78701409 C47.3631301,6.78701409 49.6596083,7.82042927 50.9920569,9.88725963 C52.0624368,11.5525133 52.4011366,13.6027648 52.0081564,16.0380141 C51.6433827,18.6314253 50.3769923,21.013554 48.4311767,22.7664496 C46.4881351,24.5149659 44.0498156,25.3892241 41.1162183,25.3892241 C38.4992156,25.3892241 36.50042,24.6630704 35.1198313,23.2107628 C33.4278059,21.4118959 32.8169672,19.0545058 33.2873154,16.1385925 Z M39.5456483,16.1216452 C39.2897199,17.7083029 39.3943509,18.8814717 39.8595412,19.6411515 C40.2707474,20.3705673 41.0541782,20.8100217 41.8910034,20.7806714 C42.8145701,20.7701477 43.6884475,20.3606814 44.2875687,19.6577304 C44.986091,18.9095943 45.4687199,17.7085485 45.7354552,16.054593 C45.9840152,14.5128825 45.8779105,13.3650118 45.4171412,12.610981 C45.0205934,11.8935442 44.2570543,11.4571347 43.4376261,11.4795664 C42.4972843,11.4932435 41.6084744,11.9116017 40.9986926,12.6275598 C40.281995,13.3931344 39.7976468,14.5578296 39.5456483,16.1216452 L39.5456483,16.1216452 Z" id="形状"></path>
                <path d="M70.2570526,24.9869106 L64.4305068,24.9869106 L64.8954515,22.1047691 C64.0402709,23.1209561 63.0118451,23.9776242 61.8578372,24.6350705 C60.8089841,25.157038 59.6488459,25.4158721 58.4775933,25.3892241 C56.7602697,25.3892241 55.5042067,24.8277536 54.7094042,23.7048127 C53.9146017,22.5818717 53.7058309,20.8530043 54.0830919,18.5182106 L55.9108184,7.18932759 L62.1809406,7.18932759 L60.6022654,16.9763772 C60.4217401,18.0936691 60.4831433,18.8868751 60.7864749,19.3559953 C61.117171,19.8402706 61.6828015,20.109223 62.2671507,20.0600439 C63.033499,20.0509423 63.7577939,19.7081668 64.2507184,19.1213124 C64.82668,18.4959826 65.2454495,17.3731644 65.507027,15.7528579 L66.8885981,7.18932759 L73.1292468,7.18932759 L70.2570526,24.9869106 Z" id="路径"></path>
                <path d="M94.6777033,0.418892397 L90.7146206,24.9869106 L84.8726011,24.9869106 L85.2973882,22.3560309 C84.5620407,23.2502751 83.6819697,24.0149045 82.6937714,24.6181233 C81.7288845,25.1279092 80.6534831,25.392711 79.5622103,25.3892581 C77.3443281,25.3892581 75.7988106,24.4674399 74.9256577,22.6238714 C74.0525047,20.780303 73.8286288,18.5403157 74.2540299,15.9039096 C74.7300272,12.9543475 75.7407232,10.6975357 77.2861179,9.13347444 C78.8315127,7.56941315 80.6007833,6.7872597 82.5939299,6.78701409 C83.4764664,6.76816126 84.3516004,6.9516571 85.1522311,7.32343209 C85.8974745,7.69047245 86.5345383,8.24488803 87.0009575,8.93231769 L88.3740549,0.418892397 L94.6777033,0.418892397 Z M85.9023321,16.0380141 C86.1278045,14.6412151 86.0250156,13.5993262 85.5939655,12.9123477 C85.203147,12.2464281 84.4773323,11.8498854 83.7058183,11.8807746 C82.9314635,11.9037847 82.2061534,12.2652278 81.7215138,12.8696111 C81.1251663,13.5285898 80.7016073,14.6345835 80.4508368,16.1875922 C80.2162767,17.6398998 80.2974517,18.7041393 80.6943617,19.3803109 C81.0260129,20.0175161 81.691201,20.4106273 82.409352,20.3938315 C83.2418107,20.3779679 84.0274927,20.0058522 84.5671818,19.3718373 C85.2089676,18.6909991 85.6540177,17.5797247 85.9023321,16.0380141 Z" id="形状"></path>
            </g>
        </g>
    </g>
</svg>
