<svg width="116" height="24" xmlns="http://www.w3.org/2000/svg"><g fill="#FFF" fill-rule="nonzero"><path stroke="#FFF" stroke-width="2" d="m16.01 1-.793 2.779H9.408l-.922 3.23h5.139l-.804 2.778H7.682l-.979 3.491h5.812l-.792 2.779H2L6.286 1zM40.924 1l-.792 2.782H34.32l-.907 3.227h5.138l-.819 2.778h-5.138l-.98 3.491h5.813l-.792 2.779h-9.723L31.198 1zM49.756 16.057l.13-2.524h-5.767l-1.611 2.524h-4.165L47.913 1h5.37l1.276 15.057h-4.803zm-3.863-5.606h3.8l-.149-6.336-3.65 6.336zM66.957 1.042c2.563 0 4.47.391 5.722 1.782 1.251 1.391 1.56 3.497.93 5.715a9.652 9.652 0 0 1-4.004 5.424 11.966 11.966 0 0 1-6.913 2.094h-5.66l3.97-15.015h5.955zm-5.21 12.236h1.737a6.147 6.147 0 0 0 3.89-1.285 6.467 6.467 0 0 0 2.261-3.442c.411-1.442.302-2.588-.302-3.445-.605-.858-1.666-1.282-3.159-1.282h-1.74l-2.688 9.454zM18.796 1.042h3.914l-3.482 12.236h6.082l-.792 2.779h-9.996z"/><path d="M5.364 22.171a.085.085 0 0 1-.027-.084l.372-2.652a.127.127 0 0 1 .051-.088.163.163 0 0 1 .097-.033c.03 0 .06.012.081.033a.094.094 0 0 1 .025.088l-.372 2.652a.121.121 0 0 1-.049.084.16.16 0 0 1-.096.03.109.109 0 0 1-.082-.03zM6.66 22.171a.079.079 0 0 1-.02-.075l.25-1.785a.103.103 0 0 1 .046-.082.15.15 0 0 1 .087-.027c.028 0 .055.009.076.027.022.02.032.05.024.079l-.04.282a.714.714 0 0 1 .303-.334.857.857 0 0 1 .438-.118.63.63 0 0 1 .52.194c.114.18.149.4.097.606l-.163 1.158a.097.097 0 0 1-.046.075.136.136 0 0 1-.084.028.118.118 0 0 1-.079-.028.082.082 0 0 1-.024-.075l.163-1.16a.677.677 0 0 0-.06-.47.423.423 0 0 0-.384-.161.682.682 0 0 0-.453.157.837.837 0 0 0-.272.461l-.164 1.173a.121.121 0 0 1-.048.075.166.166 0 0 1-.09.04.112.112 0 0 1-.076-.04zM9.387 22.168a.097.097 0 0 1-.021-.084l.239-1.71h-.33c-.057 0-.081-.027-.075-.078a.091.091 0 0 1 .102-.079h.327l.04-.285c.011-.094.033-.186.063-.276a.68.68 0 0 1 .093-.187.423.423 0 0 1 .124-.11.453.453 0 0 1 .14-.057.85.85 0 0 1 .156 0h.236a.066.066 0 0 1 .06.024.076.076 0 0 1 .016.058.121.121 0 0 1-.033.06.081.081 0 0 1-.067.025h-.172a.38.38 0 0 0-.206.048.327.327 0 0 0-.115.179c-.041.128-.07.26-.087.394l-.015.12h.408c.036 0 .057.007.063.02a.076.076 0 0 1 0 .06.073.073 0 0 1-.09.079h-.406L9.6 22.077a.127.127 0 0 1-.049.085.139.139 0 0 1-.093.049.1.1 0 0 1-.07-.043zM11.198 22.184a.792.792 0 0 1-.282-.194.758.758 0 0 1-.169-.334 1.215 1.215 0 0 1 0-.46c.02-.16.067-.314.14-.458.063-.127.151-.24.26-.333.202-.17.457-.265.722-.267a.962.962 0 0 1 .368.07.719.719 0 0 1 .444.533c.03.15.03.305 0 .455-.02.16-.068.316-.141.46a1.087 1.087 0 0 1-.983.594.932.932 0 0 1-.36-.066zm1.142-1.634a.568.568 0 0 0-.508-.245.767.767 0 0 0-.574.242c-.162.18-.264.407-.29.649a.911.911 0 0 0 .106.642c.11.167.302.262.501.249a.767.767 0 0 0 .602-.246c.16-.18.259-.406.284-.645a.91.91 0 0 0-.121-.646zM13.32 22.174a.088.088 0 0 1-.025-.078l.251-1.785a.121.121 0 0 1 .045-.079.142.142 0 0 1 .085-.027.097.097 0 0 1 .103.118l-.03.236a.703.703 0 0 1 .238-.303.658.658 0 0 1 .411-.124l.03.027c.015.011.027.025.037.04a.058.058 0 0 1 0 .045.106.106 0 0 1-.036.067.139.139 0 0 1-.094.024.603.603 0 0 0-.239.046.483.483 0 0 0-.181.109.908.908 0 0 0-.121.142.729.729 0 0 0-.103.26l-.17 1.213a.115.115 0 0 1-.048.076.145.145 0 0 1-.087.03.1.1 0 0 1-.067-.037zM14.96 22.171a.079.079 0 0 1-.02-.078l.26-1.794a.097.097 0 0 1 .045-.073.139.139 0 0 1 .087-.03.112.112 0 0 1 .079.027.082.082 0 0 1 .027.076l-.04.266a.757.757 0 0 1 .303-.303.85.85 0 0 1 .438-.12.516.516 0 0 1 .605.505.825.825 0 0 1 .828-.506c.086 0 .172.014.254.043a.58.58 0 0 1 .205.13c.065.068.11.151.13.242a.993.993 0 0 1 0 .358l-.166 1.182a.115.115 0 0 1-.048.078.142.142 0 0 1-.085.028.109.109 0 0 1-.078-.028.079.079 0 0 1-.022-.078l.17-1.212a.607.607 0 0 0-.07-.434.408.408 0 0 0-.353-.148.926.926 0 0 0-.248.033.867.867 0 0 0-.227.11.666.666 0 0 0-.181.211.941.941 0 0 0-.1.303l-.157 1.118a.106.106 0 0 1-.049.082.142.142 0 0 1-.084.028.109.109 0 0 1-.079-.028.091.091 0 0 1-.021-.082l.154-1.09c.064-.464-.07-.697-.399-.697a.742.742 0 0 0-.51.182.828.828 0 0 0-.258.53l-.15 1.079a.112.112 0 0 1-.046.078.16.16 0 0 1-.09.028.112.112 0 0 1-.103-.016zM18.872 22.099a.461.461 0 0 1-.133-.437.686.686 0 0 1 .078-.248.524.524 0 0 1 .157-.17.857.857 0 0 1 .279-.109 3.35 3.35 0 0 1 .408-.054c.157 0 .347-.019.577-.019l.042-.287a.38.38 0 0 0-.093-.355.528.528 0 0 0-.37-.115 1.294 1.294 0 0 0-.347.04 2.028 2.028 0 0 0-.326.127.084.084 0 0 1-.046 0 .07.07 0 0 1-.057-.028.079.079 0 0 1-.018-.063.07.07 0 0 1 .03-.052c.238-.141.512-.212.789-.203a.763.763 0 0 1 .535.164c.122.135.17.322.127.5l-.184 1.306a.097.097 0 0 1-.052.07.169.169 0 0 1-.094.027.097.097 0 0 1-.07-.022.073.073 0 0 1-.02-.066l.048-.343a.858.858 0 0 1-.759.476.751.751 0 0 1-.501-.14zm1.06-.24a.989.989 0 0 0 .279-.575v-.076a5.219 5.219 0 0 0-.753.04.718.718 0 0 0-.366.13.41.41 0 0 0-.139.272c-.04.291.117.437.472.437a.703.703 0 0 0 .508-.228zM21.613 22.21a.284.284 0 0 1-.124-.09.373.373 0 0 1-.072-.194 1.133 1.133 0 0 1 0-.303l.175-1.242h-.302a.106.106 0 0 1-.073-.019.067.067 0 0 1 0-.057c0-.055.046-.082.115-.082h.281l.115-.624c0-.018.018-.04.048-.064a.163.163 0 0 1 .073-.051.09.09 0 0 1 .088.109l-.085.606h.402c.066 0 .094.027.088.082a.082.082 0 0 1-.03.057.136.136 0 0 1-.08.018h-.383l-.178 1.255a.936.936 0 0 0 0 .218c0 .046.014.091.039.13a.17.17 0 0 0 .081.06c.037.014.076.02.115.02h.148a.097.097 0 0 1 .076.026.088.088 0 0 1 .018.067.097.097 0 0 1-.03.058.118.118 0 0 1-.058.03c-.09.004-.179.004-.269 0a.416.416 0 0 1-.178-.01zM22.982 22.168c-.031-.025-.043-.059-.031-.09l.373-1.764c.005-.034.031-.065.073-.085a.29.29 0 0 1 .132-.033c.043 0 .084.012.113.033.033.023.045.055.032.085l-.373 1.763c-.003.036-.03.07-.073.091a.25.25 0 0 1-.114.043c-.052.004-.104-.013-.132-.043zm.455-2.566c-.043-.034-.06-.08-.045-.124.009-.048.045-.091.1-.122a.416.416 0 0 1 .21-.048c.07-.003.139.014.19.045.044.035.062.08.05.125-.01.048-.047.093-.104.124a.452.452 0 0 1-.391 0h-.01zM24.57 22.184a.792.792 0 0 1-.282-.194.758.758 0 0 1-.17-.334 1.215 1.215 0 0 1 0-.46c.021-.16.068-.314.14-.458.06-.13.145-.248.25-.345.203-.17.459-.265.723-.267a.962.962 0 0 1 .369.07.719.719 0 0 1 .444.533c.034.15.04.304.015.455-.02.16-.069.316-.142.46a1.087 1.087 0 0 1-.982.594.932.932 0 0 1-.366-.054zm1.142-1.634a.568.568 0 0 0-.508-.245.767.767 0 0 0-.574.242c-.161.181-.262.408-.288.649a.911.911 0 0 0 .106.642c.11.167.302.262.502.249a.767.767 0 0 0 .583-.246c.16-.18.26-.406.284-.645a.911.911 0 0 0-.102-.646h-.003zM26.685 22.171a.079.079 0 0 1-.021-.075l.25-1.785a.103.103 0 0 1 .046-.082.15.15 0 0 1 .088-.027.106.106 0 0 1 .075.027c.022.02.032.05.027.079l-.042.282a.714.714 0 0 1 .302-.334.857.857 0 0 1 .439-.118.63.63 0 0 1 .52.194c.113.18.148.4.096.606l-.16 1.158a.115.115 0 0 1-.045.075.15.15 0 0 1-.088.028.118.118 0 0 1-.079-.028.082.082 0 0 1-.024-.075l.163-1.16a.677.677 0 0 0-.06-.47.423.423 0 0 0-.384-.161.682.682 0 0 0-.453.157.837.837 0 0 0-.263.461l-.163 1.173a.121.121 0 0 1-.049.075.157.157 0 0 1-.087.028.112.112 0 0 1-.088-.028zM31.385 22.165a.091.091 0 0 1-.024-.084l.36-2.567h-.862a.112.112 0 0 1-.082-.027.085.085 0 0 1-.018-.073.11.11 0 0 1 .04-.073.148.148 0 0 1 .09-.027h1.95c.078 0 .115.033.106.103a.112.112 0 0 1-.043.07.15.15 0 0 1-.093.027h-.835l-.36 2.567a.121.121 0 0 1-.05.084.154.154 0 0 1-.094.034.115.115 0 0 1-.085-.034zM33.67 22.177a.777.777 0 0 1-.275-.203.807.807 0 0 1-.163-.33 1.142 1.142 0 0 1-.018-.433 1.39 1.39 0 0 1 .187-.53c.096-.16.229-.294.387-.391.161-.1.348-.153.538-.152.572 0 .825.334.759 1a.079.079 0 0 1-.043.058.187.187 0 0 1-.1.024H33.45v.033a.969.969 0 0 0 0 .352c.04.183.167.335.339.409a.69.69 0 0 0 .26.057c.137.004.274-.02.402-.072.12-.054.234-.122.338-.203a.136.136 0 0 1 .085-.037c.018 0 .036.008.048.022a.06.06 0 0 1 0 .051.133.133 0 0 1-.054.091 1.226 1.226 0 0 1-.311.212 1.06 1.06 0 0 1-.251.085c-.1.021-.201.031-.303.03a.835.835 0 0 1-.332-.073zm1.209-1.112a.853.853 0 0 0-.106-.554.495.495 0 0 0-.45-.206.78.78 0 0 0-.556.23 1.015 1.015 0 0 0-.278.546l1.39-.016zM35.934 21.965a1.066 1.066 0 0 1-.13-.77 1.25 1.25 0 0 1 .375-.76c.204-.199.48-.308.764-.303.104 0 .206.018.303.055a.49.49 0 0 1 .22.142.115.115 0 0 1 .03.088.073.073 0 0 1-.027.048.075.075 0 0 1-.051.019.09.09 0 0 1-.07-.034.649.649 0 0 0-.44-.154.794.794 0 0 0-.566.24 1.12 1.12 0 0 0-.302.672c-.006.074-.006.15 0 .224a.911.911 0 0 0 .033.23c.02.076.051.147.094.212a.475.475 0 0 0 .175.149.63.63 0 0 0 .272.058c.194 0 .383-.054.547-.158a.103.103 0 0 1 .051 0c.02 0 .04.008.055.021a.06.06 0 0 1 .018.055c0 .03-.03.06-.076.09-.188.124-.41.185-.634.176a.698.698 0 0 1-.641-.3zM38.05 22.171a.082.082 0 0 1-.022-.081l.375-2.67a.097.097 0 0 1 .046-.076.16.16 0 0 1 .087-.03.112.112 0 0 1 .079.027c.019.022.027.05.021.08l-.163 1.157a.694.694 0 0 1 .196-.246.905.905 0 0 1 .825-.152.54.54 0 0 1 .206.13.494.494 0 0 1 .12.243c.022.119.022.24 0 .358l-.165 1.179a.103.103 0 0 1-.046.081.15.15 0 0 1-.087.028.106.106 0 0 1-.076-.028.091.091 0 0 1-.024-.081l.172-1.212c.048-.349-.09-.525-.42-.525a.962.962 0 0 0-.269.037.728.728 0 0 0-.227.115.606.606 0 0 0-.175.206.91.91 0 0 0-.094.303l-.15 1.079a.115.115 0 0 1-.05.081.157.157 0 0 1-.087.028.112.112 0 0 1-.072-.03zM40.589 22.171a.079.079 0 0 1-.022-.075l.248-1.785a.115.115 0 0 1 .049-.082.15.15 0 0 1 .087-.027c.028 0 .055.009.076.027.022.02.031.05.024.079l-.04.282a.7.7 0 0 1 .303-.334.857.857 0 0 1 .438-.118.63.63 0 0 1 .52.194c.114.18.149.4.097.606l-.163 1.158a.097.097 0 0 1-.046.075.136.136 0 0 1-.084.028.118.118 0 0 1-.079-.028.082.082 0 0 1-.024-.075l.163-1.16a.677.677 0 0 0-.06-.47.423.423 0 0 0-.384-.161.682.682 0 0 0-.454.157.837.837 0 0 0-.263.461l-.163 1.173a.121.121 0 0 1-.048.075.166.166 0 0 1-.09.028.112.112 0 0 1-.085-.028zM43.548 22.184a.792.792 0 0 1-.282-.194.752.752 0 0 1-.166-.334 1.215 1.215 0 0 1-.015-.46c.021-.16.07-.314.142-.458a1.075 1.075 0 0 1 .595-.53c.124-.046.255-.07.388-.07a.947.947 0 0 1 .365.07.759.759 0 0 1 .284.2c.08.096.137.21.164.333.032.15.037.304.015.455a1.42 1.42 0 0 1-.145.46 1.039 1.039 0 0 1-.599.528 1.083 1.083 0 0 1-.746 0zm1.142-1.634a.565.565 0 0 0-.505-.245.764.764 0 0 0-.574.242c-.162.18-.263.407-.287.649a.911.911 0 0 0 .106.642c.11.168.302.263.501.249a.755.755 0 0 0 .58-.246c.167-.178.273-.404.303-.645a.91.91 0 0 0-.124-.646zM45.727 22.168a.103.103 0 0 1-.018-.09l.371-2.643a.118.118 0 0 1 .049-.088.139.139 0 0 1 .087-.033.09.09 0 0 1 .073.033.094.094 0 0 1 .024.088l-.372 2.642a.133.133 0 0 1-.139.122.09.09 0 0 1-.075-.03zM47.302 22.184a.792.792 0 0 1-.282-.194.758.758 0 0 1-.169-.334 1.215 1.215 0 0 1 0-.46c.02-.16.067-.314.14-.458.058-.13.142-.248.247-.345.202-.17.458-.265.722-.267a.962.962 0 0 1 .37.07.719.719 0 0 1 .444.533c.029.15.029.305 0 .455-.021.16-.07.316-.143.46a1.087 1.087 0 0 1-.982.594.932.932 0 0 1-.347-.054zm1.145-1.634a.568.568 0 0 0-.508-.245.767.767 0 0 0-.574.242c-.161.181-.261.408-.287.649a.911.911 0 0 0 .106.642c.11.167.302.262.501.249a.767.767 0 0 0 .584-.246c.16-.18.259-.406.284-.645a.911.911 0 0 0-.106-.646zM49.39 22.902a.082.082 0 0 1-.06-.091.127.127 0 0 1 .033-.067.103.103 0 0 1 .066-.03h.025c.183.075.38.112.577.109a.824.824 0 0 0 .547-.155.74.74 0 0 0 .22-.475l.073-.51a.878.878 0 0 1-.302.361.788.788 0 0 1-.475.149.817.817 0 0 1-.32-.058.629.629 0 0 1-.23-.154.835.835 0 0 1-.203-.494 1.154 1.154 0 0 1 0-.288 1.482 1.482 0 0 1 .321-.74.907.907 0 0 1 .701-.327.682.682 0 0 1 .43.13.63.63 0 0 1 .223.358l.043-.321a.121.121 0 0 1 .045-.079.13.13 0 0 1 .081-.03.1.1 0 0 1 .076.027.085.085 0 0 1 .018.079l-.25 1.915a.852.852 0 0 1-.303.588 1.11 1.11 0 0 1-.692.2 1.843 1.843 0 0 1-.644-.097zm1.273-1.11a1.09 1.09 0 0 0 .275-.605 1.26 1.26 0 0 0 0-.303.963.963 0 0 0-.067-.28.424.424 0 0 0-.175-.214.561.561 0 0 0-.302-.082.685.685 0 0 0-.396.118.827.827 0 0 0-.272.303c-.071.144-.118.299-.14.458a.85.85 0 0 0 .103.627.55.55 0 0 0 .472.215.68.68 0 0 0 .502-.236zM52.274 22.953a.088.088 0 0 1-.064-.024.064.064 0 0 1-.018-.06.16.16 0 0 1 .021-.061l.4-.682-.539-1.77a.276.276 0 0 1 0-.051.143.143 0 0 1 .048-.088.133.133 0 0 1 .088-.036c.043-.001.08.03.088.072l.486 1.588.907-1.56a.12.12 0 0 1 .112-.076c.029 0 .056.012.076.033a.094.094 0 0 1 .027.082.07.07 0 0 1 0 .027l-1.454 2.5a.184.184 0 0 1-.178.106zM56.454 22.165a.906.906 0 0 1-.544-.539 1.336 1.336 0 0 1-.094-.397 2.193 2.193 0 0 1 .018-.44c.019-.142.054-.283.106-.417a1.774 1.774 0 0 1 .505-.73c.121-.1.26-.177.408-.228.161-.06.332-.09.504-.088.088 0 .175.006.26.021a.878.878 0 0 1 .405.152c.011.007.02.017.028.027.02.019.027.047.02.073a.112.112 0 0 1-.03.067.082.082 0 0 1-.06.027.112.112 0 0 1-.063-.024l-.094-.058a.863.863 0 0 0-.175-.052 1.64 1.64 0 0 0-.32-.027 1.09 1.09 0 0 0-.756.282c-.093.089-.171.19-.233.303a1.517 1.517 0 0 0-.157.336 2.202 2.202 0 0 0-.079.346c-.015.115-.02.232-.018.348.004.113.024.225.057.334.032.109.083.212.152.303a.707.707 0 0 0 .272.203c.13.053.27.079.41.075.117.003.234-.014.345-.048.114-.04.225-.091.33-.152a.12.12 0 0 1 .07-.024.1.1 0 0 1 .066.024.064.064 0 0 1 .02.061c0 .042-.041.082-.111.124a1.424 1.424 0 0 1-.762.218 1.372 1.372 0 0 1-.48-.1zM59.147 22.184a.78.78 0 0 1-.284-.194.752.752 0 0 1-.167-.334 1.215 1.215 0 0 1 0-.46c.022-.16.07-.314.143-.458a1.075 1.075 0 0 1 .595-.53c.124-.046.255-.07.387-.07.126 0 .251.023.369.07a.77.77 0 0 1 .28.2c.081.096.137.21.164.333.028.15.028.305 0 .455a1.35 1.35 0 0 1-.145.46 1.039 1.039 0 0 1-.599.528 1.074 1.074 0 0 1-.743 0zm1.14-1.634a.562.562 0 0 0-.505-.245.764.764 0 0 0-.575.242c-.162.18-.263.407-.287.649a.911.911 0 0 0 .106.642c.11.168.302.263.502.249a.767.767 0 0 0 .583-.246c.16-.18.259-.406.284-.645a.911.911 0 0 0-.109-.646zM61.32 22.15a.137.137 0 0 1-.03-.112.188.188 0 0 1 .063-.109.208.208 0 0 1 .14-.045.154.154 0 0 1 .126.048.127.127 0 0 1 .03.106.17.17 0 0 1-.063.112.196.196 0 0 1-.142.06.154.154 0 0 1-.124-.06zM62.469 22.85a.04.04 0 0 1 0-.024l.302-.936a.16.16 0 0 1 .166-.112h.124c.051 0 .073.03.066.075-.006.046 0 .021 0 .037l-.456.927a.13.13 0 0 1-.118.088h-.042c-.033.009-.048-.012-.042-.055zM64.095 22.165a.097.097 0 0 1-.028-.084l.372-2.655a.127.127 0 0 1 .052-.085.172.172 0 0 1 .093-.03.112.112 0 0 1 .085.03.091.091 0 0 1 .024.085L64.333 22h1.394c.078 0 .115.033.103.103a.11.11 0 0 1-.04.07.148.148 0 0 1-.09.027h-1.512a.103.103 0 0 1-.093-.034zM66.884 22.21a.269.269 0 0 1-.123-.09.328.328 0 0 1-.073-.194 1.245 1.245 0 0 1 0-.303l.175-1.242h-.28a.12.12 0 0 1-.076-.019.058.058 0 0 1 0-.057c0-.055.045-.082.111-.082h.266L67 19.6c0-.018.018-.04.052-.064a.136.136 0 0 1 .07-.036.09.09 0 0 1 .087.109l-.088.606h.405c.064 0 .094.027.085.082a.073.073 0 0 1-.03.057.127.127 0 0 1-.076.019H67.1l-.175 1.254a.96.96 0 0 0 0 .218.246.246 0 0 0 .042.13c.019.029.046.05.079.061.037.013.077.02.118.018h.148a.09.09 0 0 1 .072.028.07.07 0 0 1 .018.066.112.112 0 0 1-.027.058.127.127 0 0 1-.06.03c-.09.005-.18.005-.27 0a.401.401 0 0 1-.16-.024zM68.523 22.193a.58.58 0 0 1-.221-.155.71.71 0 0 1-.136-.233 1.014 1.014 0 0 1-.057-.303 1.537 1.537 0 0 1 0-.33 1.416 1.416 0 0 1 .323-.718c.09-.1.197-.18.317-.237a.923.923 0 0 1 .405-.09.7.7 0 0 1 .408.123.542.542 0 0 1 .224.334l.163-1.173a.13.13 0 0 1 .046-.079.157.157 0 0 1 .087-.027c.029 0 .057.009.079.027.02.021.029.05.024.079l-.375 2.67a.09.09 0 0 1-.042.072.139.139 0 0 1-.082.024.124.124 0 0 1-.081-.02.082.082 0 0 1-.03-.04v-.027l.042-.303a.869.869 0 0 1-.315.345.905.905 0 0 1-.45.118.796.796 0 0 1-.33-.057zm.634-.158a.773.773 0 0 0 .39-.342 1.491 1.491 0 0 0 .166-.51 1.279 1.279 0 0 0 0-.32.847.847 0 0 0-.081-.282.46.46 0 0 0-.187-.2.567.567 0 0 0-.303-.076.655.655 0 0 0-.323.079.708.708 0 0 0-.239.215 1.192 1.192 0 0 0-.151.288c-.04.102-.067.209-.082.318-.011.1-.011.202 0 .303.006.095.027.19.06.279.034.086.093.16.17.212.09.058.195.088.302.085a.856.856 0 0 0 .278-.049zM70.86 22.15a.14.14 0 0 1-.034-.112.188.188 0 0 1 .063-.109.208.208 0 0 1 .14-.045.145.145 0 0 1 .126.048.127.127 0 0 1 .034.106.17.17 0 0 1-.064.112.2.2 0 0 1-.139.049.145.145 0 0 1-.127-.049z" stroke="#FFF" stroke-width=".5"/><path d="M86.476 16.999c-.864 2.467-1.331 3.78-1.402 3.94a3.18 3.18 0 0 1-.58.996c-.221.24-.504.413-.816.503-.407.11-.828.16-1.249.149h-1.457l.079-1.246h1.176c.276.009.552-.017.822-.076a.888.888 0 0 0 .456-.26c.146-.176.262-.375.345-.588.106-.233.254-.588.438-1.067.185-.478.327-.848.426-1.118h-1.27c-.59 1-1.334 1.902-2.203 2.673-.97.83-2.044 1.53-3.194 2.082l-.62-1.03c.975-.45 1.9-1.002 2.757-1.65a8.568 8.568 0 0 0 1.84-2.063h-1.363c-.715.855-1.551 1.6-2.481 2.212a20.67 20.67 0 0 1-3.546 1.794l-.444-1.085a17.208 17.208 0 0 0 2.947-1.354 9.095 9.095 0 0 0 1.989-1.567h-1.602a21.91 21.91 0 0 1-2.291 1.543l-.563-1.046a14.17 14.17 0 0 0 3.482-2.59h-1.23l1.372-5.13h8.977L85.9 16.15h-6.157c-.23.257-.501.539-.813.842l7.547.006zm-7.577-2.84-.209.78h6.094l.208-.78H78.9zm6.393-1.123.208-.776h-6.093l-.206.776h6.09zM99.304 20.884l-.38 1.46H87.171l.39-1.46h6.199c.604-.91 1.312-1.988 2.116-3.26a87.016 87.016 0 0 0 1.91-3.143l1.369.606c-.746 1.196-1.995 3.124-3.748 5.785l3.896.012zm1.862-8.263-.393 1.472H89.777l.396-1.472h4.915l-.076-1.861 1.678-.282c.03.785.042 1.5.042 2.143h4.434zm-9.86 7.648a38.668 38.668 0 0 0-.172-2.425c-.094-.96-.19-1.86-.302-2.672l1.511-.536.565 5.036-1.602.597zM106.068 14.723a22.134 22.134 0 0 1-1.51 1.743l-1.675 6.278h-1.312l1.233-4.606c-.405.349-.828.691-1.263 1.03v-1.484a23.9 23.9 0 0 0 1.916-1.77 20.125 20.125 0 0 0 1.717-1.942l.894.751zm.874-3.333a38.398 38.398 0 0 1-1.865 1.818c-.71.65-1.414 1.245-2.116 1.782l-.145-1.457c.504-.384 1.052-.85 1.644-1.4a27.758 27.758 0 0 0 1.636-1.628l.846.885zm-3.552 10.297c.652-.8 1.245-1.646 1.775-2.53l.967.375a35.95 35.95 0 0 1-1.847 2.758l-.895-.603zm10.147-4.124-.302 1.178h-3.926l.429.791.178.334-1.154.778c-.097-.242-.23-.53-.4-.866-.169-.337-.302-.606-.432-.822l.324-.215h-3.555l.302-1.178h8.536zm-7.012-4.849.302-1.166h3.325l.25-.936h1.403l-.25.936H115l-.302 1.166h-3.446l-.212.791h3.114l-.886 3.306h-7.626l.886-3.306h3.098l.212-.79h-3.313zm3.243 7.46 1.088.173-.354 1.179a1.61 1.61 0 0 1-.565.885 2.07 2.07 0 0 1-1.157.254h-1.883c-.463 0-.777-.09-.94-.275-.164-.185-.188-.503-.067-.958l.59-2.154h1.242l-.484 1.818c-.048.179-.048.303 0 .342.049.04.17.073.372.073h1.27a.79.79 0 0 0 .417-.079.606.606 0 0 0 .202-.336l.269-.921zm-1.282-5.65h-1.03l-.339 1.272h1.028l.341-1.273zm1.744 1.272.339-1.273h-1.04l-.33 1.273h1.031zm1.69 3.227c.16.379.295.767.405 1.164.136.472.22.763.254.87l.12.442-1.269.712a23.933 23.933 0 0 0-.719-2.545l1.21-.643zm-.632-3.227h1.028l.339-1.273h-1.037l-.33 1.273z"/></g></svg>