<?xml version="1.0" encoding="UTF-8"?>
<svg width="32px" height="32px" viewBox="0 0 32 32" version="1.1" xmlns="http://www.w3.org/2000/svg" xmlns:xlink="http://www.w3.org/1999/xlink">
    <title>编组 10</title>
    <g id="页面-1" stroke="none" stroke-width="1" fill="none" fill-rule="evenodd">
        <g id="1.2-ERDP登录" transform="translate(-872.000000, -337.000000)">
            <g id="编组-13" transform="translate(40.000000, 80.000000)">
                <g id="编组-4" transform="translate(720.000000, 130.000000)">
                    <g id="编组-7" transform="translate(100.000000, 115.000000)">
                        <g id="编组-10" transform="translate(12.000000, 12.000000)">
                            <rect id="矩形" fill="#91ACFF" x="0" y="0" width="32" height="32" rx="2"></rect>
                            <g id="编组" transform="translate(5.500000, 7.500000)" fill="#FFFFFF" fill-rule="nonzero">
                                <path d="M17.5753968,9.63378684 L14.0379819,8.8628118 C15.1717687,8.27324264 15.9427438,7.13945578 15.9427438,5.77891156 L15.9427438,4.23696146 C15.9427438,2.33219955 14.4007937,0.790249426 12.4960318,0.790249426 C10.5912699,0.790249426 9.00396826,2.33219953 9.00396826,4.23696146 L9.00396826,5.77891156 C9.00396826,7.13945578 9.77494332,8.27324262 10.9087302,8.8628118 L7.3713152,9.63378684 C6.28287983,9.86054422 5.55725625,10.8129252 5.55725625,11.9013605 L5.55725625,14.6678004 C5.55725625,15.5294784 6.23752836,16.2097506 7.09920636,16.2097506 L17.8928571,16.2097506 C18.7545351,16.2097506 19.4348073,15.5294785 19.4348073,14.6678004 L19.4348073,11.9013605 C19.3894558,10.8129252 18.6184807,9.86054422 17.5753968,9.63378684 L17.5753968,9.63378684 Z M7.05385489,8.31859411 L8.18764173,8.09183673 C7.82482993,7.41156463 7.59807258,6.64058956 7.59807258,5.82426303 L7.59807258,4.28231293 C7.59807258,3.87414966 7.64342404,3.46598639 7.77947847,3.05782313 C7.3713152,2.78571429 6.82709751,2.6043084 6.28287983,2.6043084 C4.78628119,2.6043084 3.51643992,3.82879819 3.51643992,5.3707483 L3.51643992,6.5952381 C3.51643992,7.638322 4.10600908,8.59070295 5.01303856,9.04421769 L2.20124717,9.63378684 C1.33956918,9.81519273 0.75,10.5408163 0.75,11.4478458 L0.75,13.6247166 C0.795351488,14.3049887 1.33956918,14.8492064 2.01984128,14.8492064 L4.15136054,14.8492064 L4.15136054,11.9013605 C4.15136054,10.1780045 5.37585034,8.68140589 7.05385489,8.31859411 Z M17.8021542,3.05782313 L20.0697279,3.05782313 C20.4325397,3.05782313 20.75,2.74036282 20.75,2.37755102 C20.75,2.01473922 20.4325397,1.69727891 20.0697279,1.69727891 L17.8021542,1.69727891 C17.4393424,1.69727891 17.1218821,2.01473922 17.1218821,2.37755102 C17.1218821,2.74036282 17.4393424,3.05782313 17.8021542,3.05782313 L17.8021542,3.05782313 Z M20.0697279,4.41836735 L17.8021542,4.41836735 C17.4393424,4.41836735 17.1218821,4.73582766 17.1218821,5.09863946 C17.1218821,5.46145125 17.4393424,5.77891156 17.8021542,5.77891156 L20.0697279,5.77891156 C20.4325397,5.77891156 20.75,5.46145125 20.75,5.09863946 C20.75,4.73582766 20.4325397,4.41836735 20.0697279,4.41836735 Z M20.0697279,7.13945578 L17.8021542,7.13945578 C17.4393424,7.13945578 17.1218821,7.45691609 17.1218821,7.81972789 C17.1218821,8.18253969 17.4393424,8.5 17.8021542,8.5 L20.0697279,8.5 C20.4325397,8.5 20.75,8.18253969 20.75,7.81972789 C20.75,7.45691609 20.4325397,7.13945578 20.0697279,7.13945578 Z" id="形状"></path>
                            </g>
                        </g>
                    </g>
                </g>
            </g>
        </g>
    </g>
</svg>