<?xml version="1.0" encoding="UTF-8"?>
<svg width="40px" height="40px" viewBox="0 0 40 40" version="1.1" xmlns="http://www.w3.org/2000/svg" xmlns:xlink="http://www.w3.org/1999/xlink">
    <title>编组 152备份 7</title>
    <g id="页面-1" stroke="none" stroke-width="1" fill="none" fill-rule="evenodd">
        <g id="icon-图标" transform="translate(-296.000000, -2067.000000)">
            <g id="编组-152备份-7" transform="translate(296.000000, 2067.000000)">
                <path d="M0,20 C0,31.045695 8.954305,40 20,40 C31.045695,40 40,31.045695 40,20 C40,8.954305 31.045695,0 20,0 C8.954305,0 0,8.954305 0,20 Z" id="路径" fill="#DCE8FB" fill-rule="nonzero"></path>
                <g id="编组-171" transform="translate(8.000000, 8.000000)">
                    <path d="M14.5342523,3.47461705 C15.0956898,3.47461705 15.5508249,3.9238689 15.5508249,4.47804915 C15.5508249,4.99264508 15.158387,5.41676705 14.6528061,5.47473042 L14.5342523,5.48148124 L1.01657259,5.48148124 C0.45513505,5.48148124 0,5.03222939 0,4.47804915 C0,3.96345321 0.392437874,3.53933124 0.898018747,3.48136787 L1.01657259,3.47461705 L14.5342523,3.47461705 Z" id="直线" fill="#2779FF" fill-rule="nonzero"></path>
                    <path d="M5.34295978,4.93937938 C5.86429464,4.93937938 6.29397072,5.3267445 6.35269314,5.82579009 L6.35953237,5.94281147 L6.35953237,17.6881641 C6.35953237,18.2423443 5.90439732,18.6915962 5.34295978,18.6915962 C4.82162493,18.6915962 4.39194885,18.304231 4.33322642,17.8051854 L4.3263872,17.6881641 L4.3263872,5.94281147 C4.3263872,5.38863123 4.78152225,4.93937938 5.34295978,4.93937938 Z" id="直线-2" fill="#2779FF" fill-rule="nonzero"></path>
                    <path d="M14.5589644,16.684732 C15.1204019,16.684732 15.575537,17.1339838 15.575537,17.6881641 C15.575537,18.20276 15.1830991,18.626882 14.6775182,18.6848453 L14.5589644,18.6915962 L5.34295978,18.6915962 C4.78152225,18.6915962 4.3263872,18.2423443 4.3263872,17.6881641 C4.3263872,17.1735681 4.71882507,16.7494462 5.22440594,16.6914828 L5.34295978,16.684732 L14.5589644,16.684732 Z" id="直线-3" fill="#2779FF" fill-rule="nonzero"></path>
                    <path d="M18.5914682,0 C21.0970138,0 23.1281599,2.00489089 23.1281599,4.47804915 C23.1281599,6.9512074 21.0970138,8.95609829 18.5914682,8.95609829 C16.0859226,8.95609829 14.0547766,6.9512074 14.0547766,4.47804915 C14.0547766,2.00489089 16.0859226,0 18.5914682,0 Z M18.5914682,2.00686418 C17.2087977,2.00686418 16.0879217,3.11325138 16.0879217,4.47804915 C16.0879217,5.84284691 17.2087977,6.94923411 18.5914682,6.94923411 C19.9741388,6.94923411 21.0950147,5.84284691 21.0950147,4.47804915 C21.0950147,3.11325138 19.9741388,2.00686418 18.5914682,2.00686418 Z" id="椭圆形" fill="#A7C0F1" fill-rule="nonzero"></path>
                    <ellipse id="椭圆形备份-5" fill="#2779FF" cx="18.008632" cy="18.086078" rx="5.99136802" ry="5.91392197"></ellipse>
                </g>
            </g>
        </g>
    </g>
</svg>