<?xml version="1.0" encoding="UTF-8"?>
<svg width="40px" height="40px" viewBox="0 0 40 40" version="1.1" xmlns="http://www.w3.org/2000/svg" xmlns:xlink="http://www.w3.org/1999/xlink">
    <title>编组 152备份 4</title>
    <g id="页面-1" stroke="none" stroke-width="1" fill="none" fill-rule="evenodd">
        <g id="icon-图标" transform="translate(-116.000000, -2067.000000)" fill-rule="nonzero">
            <g id="编组-152备份-4" transform="translate(116.000000, 2067.000000)">
                <path d="M0,20 C0,31.045695 8.954305,40 20,40 C31.045695,40 40,31.045695 40,20 C40,8.954305 31.045695,0 20,0 C8.954305,0 0,8.954305 0,20 Z" id="路径" fill="#DCE8FB"></path>
                <g id="编组-150" transform="translate(9.000000, 8.000000)">
                    <path d="M19.344011,15.8543215 C19.7202389,15.9605569 19.957238,16.0999025 20.0550083,16.2723581 L21.8900091,19.5091372 C22.0366636,19.7678192 22.0366636,20.0865285 21.8900091,20.3452104 L20.0550083,23.5819634 C19.9083529,23.8406469 19.6373218,24 19.344011,24 L15.6739582,24 C15.3806473,24 15.1096162,23.8406469 14.9629608,23.5819634 L13.1279601,20.3452104 C12.9813055,20.0865285 12.9813055,19.7678192 13.1279601,19.5091372 L14.9629608,16.2723581 C15.1096162,16.0136746 15.3806473,15.8543215 15.6739582,15.8543215 L19.344011,15.8543215 Z M17.5089846,18.3595235 C16.6588305,18.3595235 15.9696405,19.0613808 15.9696405,19.9271607 C15.9696405,20.7929407 16.6588305,21.494798 17.5089846,21.494798 C18.3591386,21.494798 19.0483286,20.7929407 19.0483286,19.9271607 C19.0483286,19.0613808 18.3591386,18.3595235 17.5089846,18.3595235 Z" id="形状结合" fill="#A7C0F1"></path>
                    <path d="M10.2012074,12.554162 C12.3695274,12.554162 14.3803726,13.2407087 16.0355779,14.4119951 L14.2971454,14.4122041 C14.0029689,14.412204 13.7312766,14.5724945 13.5849422,14.8323831 L10.8204599,19.7418312 C10.6755782,19.9991432 10.6754122,20.3153662 10.8200237,20.5728357 L12.1714395,22.97895 L0.819854644,22.97895 L0.807385958,22.9788455 C0.360232165,22.9714514 0,22.5999998 0,22.1428767 C0,22.1039471 0.00259122916,22.0656183 0.00764540881,22.0280996 C0.478838624,16.7156642 4.86281353,12.554162 10.2012074,12.554162 Z" id="路径" fill="#2779FF"></path>
                    <path d="M10.7022639,0 C13.8832671,0 16.4619762,2.62610599 16.4619762,5.8655762 C16.4619762,9.10504641 13.8832671,11.7311524 10.7022639,11.7311524 C7.52126072,11.7311524 4.94255155,9.10504641 4.94255155,5.8655762 C4.94255155,2.62610599 7.52126072,0 10.7022639,0 Z" id="路径" fill="#2779FF"></path>
                </g>
            </g>
        </g>
    </g>
</svg>