<?xml version="1.0" encoding="UTF-8"?>
<svg width="40px" height="40px" viewBox="0 0 40 40" version="1.1" xmlns="http://www.w3.org/2000/svg" xmlns:xlink="http://www.w3.org/1999/xlink">
    <title>编组 152备份 9</title>
    <g id="页面-1" stroke="none" stroke-width="1" fill="none" fill-rule="evenodd">
        <g id="icon-图标" transform="translate(-356.000000, -2067.000000)">
            <g id="编组-152备份-9" transform="translate(356.000000, 2067.000000)">
                <path d="M0,20 C0,31.045695 8.954305,40 20,40 C31.045695,40 40,31.045695 40,20 C40,8.954305 31.045695,0 20,0 C8.954305,0 0,8.954305 0,20 Z" id="路径" fill="#DCE8FB" fill-rule="nonzero"></path>
                <g id="日历" transform="translate(8.000000, 8.000000)">
                    <path d="M0.923076923,9.66801619 L23.0769231,9.66801619 L23.0769231,21.9109312 C23.0769231,22.5549085 22.5549085,23.0769231 21.9109312,23.0769231 L2.08906883,23.0769231 C1.44510899,23.0769231 0.923076923,22.5549085 0.923076923,21.9109312 L0.923076923,9.66801619 Z" id="路径" fill="#2779FF"></path>
                    <path d="M23.0769231,8.74493927 C23.5867244,8.74493927 24,9.15821489 24,9.66801619 L24,21.9109312 C24,23.0647098 23.0647098,24 21.9109312,24 L2.08906883,24 C0.935303781,24 0,23.0647059 0,21.9109312 L0,9.66801619 C0,9.15821489 0.413275616,8.74493927 0.923076923,8.74493927 L23.0769231,8.74493927 Z M22.1538462,10.5910931 L1.84615385,10.5910931 L1.84615385,21.9109312 C1.84615385,22.0259322 1.92605053,22.1222568 2.03336798,22.1474311 L2.08906883,22.1538462 L21.9109312,22.1538462 C22.0451072,22.1538462 22.1538462,22.0451072 22.1538462,21.9109312 L22.1538462,10.5910931 Z" id="路径" fill="#2779FF" fill-rule="nonzero"></path>
                    <path d="M21.9109312,1.74898785 C23.0647059,1.74898785 24,2.68429164 24,3.83805668 L24,9.66801619 C24,10.1778175 23.5867244,10.5910931 23.0769231,10.5910931 L0.923076923,10.5910931 C0.413275616,10.5910931 0,10.1778175 0,9.66801619 L0,3.83805668 C0,2.68429553 0.93530768,1.74898785 2.08906883,1.74898785 L21.9109312,1.74898785 Z M21.9109312,3.5951417 L2.08906883,3.5951417 C1.9549103,3.5951417 1.84615385,3.70389815 1.84615385,3.83805668 L1.84615385,8.74406478 L22.1538462,8.74406478 L22.1538462,3.83805668 C22.1538462,3.72305664 22.0739503,3.62673138 21.9666324,3.60155681 L21.9109312,3.5951417 Z" id="路径" fill="#2779FF" fill-rule="nonzero"></path>
                    <path d="M7.33603239,0 C7.8458337,0 8.25910931,0.413275616 8.25910931,0.923076923 L8.25910931,5.58704453 C8.25910931,6.09684584 7.8458337,6.51012146 7.33603239,6.51012146 C6.82623108,6.51012146 6.41295547,6.09684584 6.41295547,5.58704453 L6.41295547,0.923076923 C6.41295547,0.413275616 6.82623108,0 7.33603239,0 Z" id="路径" fill="#A7C0F1" fill-rule="nonzero"></path>
                    <path d="M16.6639676,0 C17.1737689,0 17.5870445,0.413275616 17.5870445,0.923076923 L17.5870445,5.58704453 C17.5870445,6.09684584 17.1737689,6.51012146 16.6639676,6.51012146 C16.1541663,6.51012146 15.7408907,6.09684584 15.7408907,5.58704453 L15.7408907,0.923076923 C15.7408907,0.413275616 16.1541663,0 16.6639676,0 Z" id="路径" fill="#A7C0F1" fill-rule="nonzero"></path>
                    <path d="M17.8299595,17.4898785 C18.3397608,17.4898785 18.7530364,17.9031542 18.7530364,18.4129555 C18.7530364,18.9227568 18.3397608,19.3360324 17.8299595,19.3360324 L14.3319838,19.3360324 C13.8221825,19.3360324 13.4089069,18.9227568 13.4089069,18.4129555 C13.4089069,17.9031542 13.8221825,17.4898785 14.3319838,17.4898785 L17.8299595,17.4898785 Z" id="路径" fill="#A7C0F1" fill-rule="nonzero"></path>
                    <path d="M9.66801619,17.4898785 C10.1778175,17.4898785 10.5910931,17.9031542 10.5910931,18.4129555 C10.5910931,18.9227568 10.1778175,19.3360324 9.66801619,19.3360324 L6.17004049,19.3360324 C5.66023918,19.3360324 5.24696356,18.9227568 5.24696356,18.4129555 C5.24696356,17.9031542 5.66023918,17.4898785 6.17004049,17.4898785 L9.66801619,17.4898785 Z" id="路径" fill="#A7C0F1" fill-rule="nonzero"></path>
                    <path d="M17.8299595,12.8259109 C18.3397608,12.8259109 18.7530364,13.2391865 18.7530364,13.7489879 C18.7530364,14.2587892 18.3397608,14.6720648 17.8299595,14.6720648 L14.3319838,14.6720648 C13.8221825,14.6720648 13.4089069,14.2587892 13.4089069,13.7489879 C13.4089069,13.2391865 13.8221825,12.8259109 14.3319838,12.8259109 L17.8299595,12.8259109 Z" id="路径" fill="#A7C0F1" fill-rule="nonzero"></path>
                    <path d="M9.66801619,12.8259109 C10.1778175,12.8259109 10.5910931,13.2391865 10.5910931,13.7489879 C10.5910931,14.2587892 10.1778175,14.6720648 9.66801619,14.6720648 L6.17004049,14.6720648 C5.66023918,14.6720648 5.24696356,14.2587892 5.24696356,13.7489879 C5.24696356,13.2391865 5.66023918,12.8259109 6.17004049,12.8259109 L9.66801619,12.8259109 Z" id="路径" fill="#A7C0F1" fill-rule="nonzero"></path>
                </g>
            </g>
        </g>
    </g>
</svg>