<?xml version="1.0" encoding="UTF-8"?>
<svg width="40px" height="40px" viewBox="0 0 40 40" version="1.1" xmlns="http://www.w3.org/2000/svg" xmlns:xlink="http://www.w3.org/1999/xlink">
    <title>编组 152备份 6</title>
    <g id="页面-1" stroke="none" stroke-width="1" fill="none" fill-rule="evenodd">
        <g id="icon-图标" transform="translate(-236.000000, -2067.000000)" fill-rule="nonzero">
            <g id="编组-152备份-6" transform="translate(236.000000, 2067.000000)">
                <path d="M0,20 C0,31.045695 8.954305,40 20,40 C31.045695,40 40,31.045695 40,20 C40,8.954305 31.045695,0 20,0 C8.954305,0 0,8.954305 0,20 Z" id="路径" fill="#DCE8FB"></path>
                <g id="编组-143" transform="translate(10.000000, 8.000000)">
                    <path d="M11.5151515,0 L11.5151515,7.08571429 C11.5151515,7.5856 11.9406667,7.9918 12.4687879,7.99988571 L12.4848485,8 L20,8 L20,23.0857143 C20,23.5906571 19.5658485,24 19.030303,24 L0.96969697,24 C0.434151515,24 0,23.5906571 0,23.0857143 L0,0.914285714 C0,0.409342857 0.434151515,0 0.96969697,0 L11.5151515,0 Z M16.6666667,17.6001143 L5.27245455,17.6001143 C4.20151515,17.6001143 3.33333333,18.4186857 3.33333333,19.4284571 L14.7275455,19.4284571 C15.7984848,19.4284571 16.6666667,18.6098857 16.6666667,17.6001143 Z M16.6666667,12.3428571 L5.27245455,12.3429714 C4.20151515,12.3429714 3.33333333,13.1615429 3.33333333,14.1713143 L14.7272727,14.1714 C15.7473593,14.1714 16.5835113,13.4288798 16.6608317,12.4857863 L16.6666667,12.3428571 Z M7.87878788,7.08582857 L5.27245455,7.08582857 C4.20151515,7.08582857 3.33333333,7.9044 3.33333333,8.91417143 L5.93951515,8.91422857 C6.95951515,8.91428299 7.79563554,8.17181717 7.87295313,7.22877813 L7.87878788,7.08582857 Z" id="形状结合" fill="#2779FF"></path>
                    <polygon id="路径" fill="#A7C0F1" points="13.4545455 0.0145714286 19.9845758 6.17142857 13.4545455 6.17142857"></polygon>
                </g>
            </g>
        </g>
    </g>
</svg>