<?xml version="1.0" encoding="UTF-8"?>
<svg width="40px" height="40px" viewBox="0 0 40 40" version="1.1" xmlns="http://www.w3.org/2000/svg" xmlns:xlink="http://www.w3.org/1999/xlink">
    <title>编组 152备份 5</title>
    <g id="页面-1" stroke="none" stroke-width="1" fill="none" fill-rule="evenodd">
        <g id="icon-图标" transform="translate(-176.000000, -2067.000000)">
            <g id="编组-152备份-5" transform="translate(176.000000, 2067.000000)">
                <path d="M0,20 C0,31.045695 8.954305,40 20,40 C31.045695,40 40,31.045695 40,20 C40,8.954305 31.045695,0 20,0 C8.954305,0 0,8.954305 0,20 Z" id="路径" fill="#DCE8FB" fill-rule="nonzero"></path>
                <g id="编组-160" transform="translate(8.000000, 8.000000)">
                    <path d="M22.949917,10.7107239 C23.4852507,10.7107239 23.9270213,11.1110008 23.9918184,11.6283663 L24,11.7599832 L24,20.5344557 C24,21.0693694 23.5994089,21.5107935 23.0816372,21.5755397 L22.949917,21.5837149 L17.6659712,21.5837149 C17.0860263,21.5837149 16.6158881,21.1139456 16.6158881,20.5344557 C16.6158881,19.999542 17.0164793,19.5581179 17.534251,19.4933717 L17.6659712,19.4851965 L21.8991763,19.484744 L21.8991763,12.8088321 L15.4997205,12.8092424 C14.9643868,12.8092424 14.5226161,12.4089655 14.4578191,11.8916 L14.4496375,11.7599832 C14.4496375,11.2250694 14.8502286,10.7836454 15.3680003,10.7188992 L15.4997205,10.7107239 L22.949917,10.7107239 Z M5.50356006,2.70075389 C6.08350489,2.70075389 6.55364307,3.17052325 6.55364307,3.75001313 C6.55364307,4.28492686 6.15305196,4.72635092 5.63528024,4.79109714 L5.50356006,4.79927236 L2.09986115,4.79904942 L2.09986115,10.7103136 L8.58063975,10.7107239 C9.11597344,10.7107239 9.55774407,11.1110008 9.62254112,11.6283663 L9.63072276,11.7599832 C9.63072276,12.2948969 9.23013165,12.736321 8.71235993,12.8010672 L8.58063975,12.8092424 L1.05008301,12.8092424 C0.514749318,12.8092424 0.0729786939,12.4089655 0.00818163741,11.8916 L0,11.7599832 L0,3.75001313 C0,3.2150994 0.40059111,2.77367534 0.918362828,2.70892911 L1.05008301,2.70075389 L5.50356006,2.70075389 Z" id="形状" fill="#A7C0F1" fill-rule="nonzero"></path>
                    <rect id="矩形" fill="#2779FF" x="4.93807648" y="0" width="18.0118405" height="6.92783718" rx="0.5"></rect>
                    <rect id="矩形备份-5" fill="#2779FF" x="1.55181777" y="17.0705371" width="17.5328444" height="6.92783718" rx="0.5"></rect>
                    <polygon id="矩形" fill="#2779FF" transform="translate(12.000000, 11.954918) rotate(-45.000000) translate(-12.000000, -11.954918) " points="8.79825715 8.75317535 15.1992311 8.75568708 15.2017428 15.156661 8.80076888 15.1541493"></polygon>
                </g>
            </g>
        </g>
    </g>
</svg>